<?xml version="1.0" encoding="UTF-8" standalone="no"?>
<!DOCTYPE svg PUBLIC "-//W3C//DTD SVG 1.1//EN"
 "http://www.w3.org/Graphics/SVG/1.1/DTD/svg11.dtd">
<!-- Generated by graphviz version 2.40.1 (20161225.0304)
 -->
<!-- Title: dependencies Pages: 1 -->
<svg width="4018pt" height="211pt"
 viewBox="0.00 0.00 4018.00 211.00" xmlns="http://www.w3.org/2000/svg" xmlns:xlink="http://www.w3.org/1999/xlink">
<g id="graph0" class="graph" transform="scale(1 1) rotate(0) translate(4 207)">
<title>dependencies</title>
<polygon fill="#ffffff" stroke="transparent" points="-4,4 -4,-207 4014,-207 4014,4 -4,4"/>
<text text-anchor="start" x="1984.0091" y="-42.4" font-family="sans-serif" font-weight="bold" font-size="14.00" fill="#000000">Legend</text>
<polygon fill="#ffffb3" stroke="transparent" points="1771,-10 1771,-30 1791,-30 1791,-10 1771,-10"/>
<text text-anchor="start" x="1794.629" y="-15.4" font-family="sans-serif" font-size="14.00" fill="#000000"> &#160;Declarations</text>
<polygon fill="#8dd3c7" stroke="transparent" points="1884,-10 1884,-30 1904,-30 1904,-10 1884,-10"/>
<text text-anchor="start" x="1907.7251" y="-15.4" font-family="sans-serif" font-size="14.00" fill="#000000"> &#160;Module</text>
<polygon fill="#80b1d3" stroke="transparent" points="1970,-10 1970,-30 1990,-30 1990,-10 1970,-10"/>
<text text-anchor="start" x="1993.7812" y="-15.4" font-family="sans-serif" font-size="14.00" fill="#000000"> &#160;Bootstrap</text>
<polygon fill="#fdb462" stroke="transparent" points="2067,-10 2067,-30 2087,-30 2087,-10 2067,-10"/>
<text text-anchor="start" x="2090.6732" y="-15.4" font-family="sans-serif" font-size="14.00" fill="#000000"> &#160;Providers</text>
<polygon fill="#fb8072" stroke="transparent" points="2163,-10 2163,-30 2183,-30 2183,-10 2163,-10"/>
<text text-anchor="start" x="2186.7258" y="-15.4" font-family="sans-serif" font-size="14.00" fill="#000000"> &#160;Exports</text>
<g id="clust1" class="cluster">
<title>cluster_BaseModule</title>
<polygon fill="none" stroke="#000000" stroke-dasharray="1,5" points="8,-70 8,-195 4002,-195 4002,-70 8,-70"/>
</g>
<g id="clust2" class="cluster">
<title>cluster_BaseModule_declarations</title>
<polygon fill="none" stroke="#000000" points="3868,-78 3868,-130 3994,-130 3994,-78 3868,-78"/>
</g>
<g id="clust4" class="cluster">
<title>cluster_BaseModule_imports</title>
<polygon fill="none" stroke="#000000" points="16,-78 16,-130 3860,-130 3860,-78 16,-78"/>
</g>
<!-- declaration.main -->
<g id="node1" class="node">
<title>declaration.main</title>
<polygon fill="#ffffb3" stroke="#000000" points="3985.687,-122 3876.313,-122 3876.313,-86 3985.687,-86 3985.687,-122"/>
<text text-anchor="middle" x="3931" y="-99.8" font-family="Times,serif" font-size="14.00" fill="#000000">declaration.main</text>
</g>
<!-- BaseModule -->
<g id="node2" class="node">
<title>BaseModule</title>
<polygon fill="#8dd3c7" stroke="#000000" points="2116.2605,-187 2113.2605,-191 2092.2605,-191 2089.2605,-187 2029.7395,-187 2029.7395,-151 2116.2605,-151 2116.2605,-187"/>
<text text-anchor="middle" x="2073" y="-164.8" font-family="Times,serif" font-size="14.00" fill="#000000">BaseModule</text>
</g>
<!-- declaration.main&#45;&gt;BaseModule -->
<g id="edge1" class="edge">
<title>declaration.main&#45;&gt;BaseModule</title>
<path fill="none" stroke="#000000" d="M3931,-122.3802C3931,-146.2785 3931,-185 3931,-185 3931,-185 2126.643,-185 2126.643,-185"/>
<polygon fill="#000000" stroke="#000000" points="2126.6431,-181.5001 2116.643,-185 2126.643,-188.5001 2126.6431,-181.5001"/>
</g>
<!-- CommonModule -->
<g id="node3" class="node">
<title>CommonModule</title>
<polygon fill="#8dd3c7" stroke="#000000" points="3851.6681,-122 3848.6681,-126 3827.6681,-126 3824.6681,-122 3740.3319,-122 3740.3319,-86 3851.6681,-86 3851.6681,-122"/>
<text text-anchor="middle" x="3796" y="-99.8" font-family="Times,serif" font-size="14.00" fill="#000000">CommonModule</text>
</g>
<!-- CommonModule&#45;&gt;BaseModule -->
<g id="edge2" class="edge">
<title>CommonModule&#45;&gt;BaseModule</title>
<path fill="none" stroke="#000000" d="M3796,-122.0908C3796,-145.1328 3796,-182 3796,-182 3796,-182 2126.453,-182 2126.453,-182"/>
<polygon fill="#000000" stroke="#000000" points="2126.453,-178.5001 2116.453,-182 2126.453,-185.5001 2126.453,-178.5001"/>
</g>
<!-- FormsModule -->
<g id="node4" class="node">
<title>FormsModule</title>
<polygon fill="#8dd3c7" stroke="#000000" points="3722.8288,-122 3719.8288,-126 3698.8288,-126 3695.8288,-122 3627.1712,-122 3627.1712,-86 3722.8288,-86 3722.8288,-122"/>
<text text-anchor="middle" x="3675" y="-99.8" font-family="Times,serif" font-size="14.00" fill="#000000">FormsModule</text>
</g>
<!-- FormsModule&#45;&gt;BaseModule -->
<g id="edge3" class="edge">
<title>FormsModule&#45;&gt;BaseModule</title>
<path fill="none" stroke="#000000" d="M3675,-122.0109C3675,-144.4852 3675,-180 3675,-180 3675,-180 2126.2641,-180 2126.2641,-180"/>
<polygon fill="#000000" stroke="#000000" points="2126.2642,-176.5001 2116.2641,-180 2126.2641,-183.5001 2126.2642,-176.5001"/>
</g>
<!-- ReactiveFormsModule -->
<g id="node5" class="node">
<title>ReactiveFormsModule</title>
<polygon fill="#8dd3c7" stroke="#000000" points="3609.3047,-122 3606.3047,-126 3585.3047,-126 3582.3047,-122 3464.6953,-122 3464.6953,-86 3609.3047,-86 3609.3047,-122"/>
<text text-anchor="middle" x="3537" y="-99.8" font-family="Times,serif" font-size="14.00" fill="#000000">ReactiveFormsModule</text>
</g>
<!-- ReactiveFormsModule&#45;&gt;BaseModule -->
<g id="edge4" class="edge">
<title>ReactiveFormsModule&#45;&gt;BaseModule</title>
<path fill="none" stroke="#000000" d="M3537,-122.0449C3537,-143.6623 3537,-177 3537,-177 3537,-177 2126.4174,-177 2126.4174,-177"/>
<polygon fill="#000000" stroke="#000000" points="2126.4175,-173.5001 2116.4174,-177 2126.4174,-180.5001 2126.4175,-173.5001"/>
</g>
<!-- BaseRoutingModule -->
<g id="node6" class="node">
<title>BaseRoutingModule</title>
<polygon fill="#8dd3c7" stroke="#000000" points="3446.8781,-122 3443.8781,-126 3422.8781,-126 3419.8781,-122 3315.1219,-122 3315.1219,-86 3446.8781,-86 3446.8781,-122"/>
<text text-anchor="middle" x="3381" y="-99.8" font-family="Times,serif" font-size="14.00" fill="#000000">BaseRoutingModule</text>
</g>
<!-- BaseRoutingModule&#45;&gt;BaseModule -->
<g id="edge5" class="edge">
<title>BaseRoutingModule&#45;&gt;BaseModule</title>
<path fill="none" stroke="#000000" d="M3381,-122.2843C3381,-143.3211 3381,-175 3381,-175 3381,-175 2126.5195,-175 2126.5195,-175"/>
<polygon fill="#000000" stroke="#000000" points="2126.5195,-171.5001 2116.5195,-175 2126.5195,-178.5001 2126.5195,-171.5001"/>
</g>
<!-- MatIconModule -->
<g id="node7" class="node">
<title>MatIconModule</title>
<polygon fill="#8dd3c7" stroke="#000000" points="3297.4748,-122 3294.4748,-126 3273.4748,-126 3270.4748,-122 3190.5252,-122 3190.5252,-86 3297.4748,-86 3297.4748,-122"/>
<text text-anchor="middle" x="3244" y="-99.8" font-family="Times,serif" font-size="14.00" fill="#000000">MatIconModule</text>
</g>
<!-- MatIconModule&#45;&gt;BaseModule -->
<g id="edge6" class="edge">
<title>MatIconModule&#45;&gt;BaseModule</title>
<path fill="none" stroke="#000000" d="M3244,-122.2228C3244,-142.3652 3244,-172 3244,-172 3244,-172 2126.4157,-172 2126.4157,-172"/>
<polygon fill="#000000" stroke="#000000" points="2126.4157,-168.5001 2116.4157,-172 2126.4157,-175.5001 2126.4157,-168.5001"/>
</g>
<!-- MatSidenavModule -->
<g id="node8" class="node">
<title>MatSidenavModule</title>
<polygon fill="#8dd3c7" stroke="#000000" points="3172.7022,-122 3169.7022,-126 3148.7022,-126 3145.7022,-122 3045.2978,-122 3045.2978,-86 3172.7022,-86 3172.7022,-122"/>
<text text-anchor="middle" x="3109" y="-99.8" font-family="Times,serif" font-size="14.00" fill="#000000">MatSidenavModule</text>
</g>
<!-- MatSidenavModule&#45;&gt;BaseModule -->
<g id="edge7" class="edge">
<title>MatSidenavModule&#45;&gt;BaseModule</title>
<path fill="none" stroke="#000000" d="M3109,-122.1061C3109,-141.3391 3109,-169 3109,-169 3109,-169 2126.5247,-169 2126.5247,-169"/>
<polygon fill="#000000" stroke="#000000" points="2126.5248,-165.5001 2116.5247,-169 2126.5247,-172.5001 2126.5248,-165.5001"/>
</g>
<!-- MatDialogModule -->
<g id="node9" class="node">
<title>MatDialogModule</title>
<polygon fill="#8dd3c7" stroke="#000000" points="3027.2022,-122 3024.2022,-126 3003.2022,-126 3000.2022,-122 2906.7978,-122 2906.7978,-86 3027.2022,-86 3027.2022,-122"/>
<text text-anchor="middle" x="2967" y="-99.8" font-family="Times,serif" font-size="14.00" fill="#000000">MatDialogModule</text>
</g>
<!-- MatDialogModule&#45;&gt;BaseModule -->
<g id="edge8" class="edge">
<title>MatDialogModule&#45;&gt;BaseModule</title>
<path fill="none" stroke="#000000" d="M2967,-122.2222C2967,-140.8285 2967,-167 2967,-167 2967,-167 2126.4216,-167 2126.4216,-167"/>
<polygon fill="#000000" stroke="#000000" points="2126.4216,-163.5001 2116.4216,-167 2126.4216,-170.5001 2126.4216,-163.5001"/>
</g>
<!-- MatFormFieldModule -->
<g id="node10" class="node">
<title>MatFormFieldModule</title>
<polygon fill="#8dd3c7" stroke="#000000" points="2888.712,-122 2885.712,-126 2864.712,-126 2861.712,-122 2747.288,-122 2747.288,-86 2888.712,-86 2888.712,-122"/>
<text text-anchor="middle" x="2818" y="-99.8" font-family="Times,serif" font-size="14.00" fill="#000000">MatFormFieldModule</text>
</g>
<!-- MatFormFieldModule&#45;&gt;BaseModule -->
<g id="edge9" class="edge">
<title>MatFormFieldModule&#45;&gt;BaseModule</title>
<path fill="none" stroke="#000000" d="M2818,-122.002C2818,-139.6754 2818,-164 2818,-164 2818,-164 2126.2745,-164 2126.2745,-164"/>
<polygon fill="#000000" stroke="#000000" points="2126.2745,-160.5001 2116.2745,-164 2126.2745,-167.5001 2126.2745,-160.5001"/>
</g>
<!-- MatMenuModule -->
<g id="node11" class="node">
<title>MatMenuModule</title>
<polygon fill="#8dd3c7" stroke="#000000" points="2729.2591,-122 2726.2591,-126 2705.2591,-126 2702.2591,-122 2614.7409,-122 2614.7409,-86 2729.2591,-86 2729.2591,-122"/>
<text text-anchor="middle" x="2672" y="-99.8" font-family="Times,serif" font-size="14.00" fill="#000000">MatMenuModule</text>
</g>
<!-- MatMenuModule&#45;&gt;BaseModule -->
<g id="edge10" class="edge">
<title>MatMenuModule&#45;&gt;BaseModule</title>
<path fill="none" stroke="#000000" d="M2672,-122.0336C2672,-139.0597 2672,-162 2672,-162 2672,-162 2126.5611,-162 2126.5611,-162"/>
<polygon fill="#000000" stroke="#000000" points="2126.5611,-158.5001 2116.5611,-162 2126.5611,-165.5001 2126.5611,-158.5001"/>
</g>
<!-- MatInputModule -->
<g id="node12" class="node">
<title>MatInputModule</title>
<polygon fill="#8dd3c7" stroke="#000000" points="2596.6513,-122 2593.6513,-126 2572.6513,-126 2569.6513,-122 2485.3487,-122 2485.3487,-86 2596.6513,-86 2596.6513,-122"/>
<text text-anchor="middle" x="2541" y="-99.8" font-family="Times,serif" font-size="14.00" fill="#000000">MatInputModule</text>
</g>
<!-- MatInputModule&#45;&gt;BaseModule -->
<g id="edge11" class="edge">
<title>MatInputModule&#45;&gt;BaseModule</title>
<path fill="none" stroke="#000000" d="M2541,-122.0091C2541,-138.0494 2541,-159 2541,-159 2541,-159 2126.608,-159 2126.608,-159"/>
<polygon fill="#000000" stroke="#000000" points="2126.6081,-155.5001 2116.608,-159 2126.608,-162.5001 2126.6081,-155.5001"/>
</g>
<!-- MatTabsModule -->
<g id="node13" class="node">
<title>MatTabsModule</title>
<polygon fill="#8dd3c7" stroke="#000000" points="2467.8118,-122 2464.8118,-126 2443.8118,-126 2440.8118,-122 2358.1882,-122 2358.1882,-86 2467.8118,-86 2467.8118,-122"/>
<text text-anchor="middle" x="2413" y="-99.8" font-family="Times,serif" font-size="14.00" fill="#000000">MatTabsModule</text>
</g>
<!-- MatTabsModule&#45;&gt;BaseModule -->
<g id="edge12" class="edge">
<title>MatTabsModule&#45;&gt;BaseModule</title>
<path fill="none" stroke="#000000" d="M2413,-122.2396C2413,-137.5706 2413,-157 2413,-157 2413,-157 2126.4066,-157 2126.4066,-157"/>
<polygon fill="#000000" stroke="#000000" points="2126.4066,-153.5001 2116.4066,-157 2126.4065,-160.5001 2126.4066,-153.5001"/>
</g>
<!-- MatButtonModule -->
<g id="node14" class="node">
<title>MatButtonModule</title>
<polygon fill="#8dd3c7" stroke="#000000" points="2340.2176,-122 2337.2176,-126 2316.2176,-126 2313.2176,-122 2219.7824,-122 2219.7824,-86 2340.2176,-86 2340.2176,-122"/>
<text text-anchor="middle" x="2280" y="-99.8" font-family="Times,serif" font-size="14.00" fill="#000000">MatButtonModule</text>
</g>
<!-- MatButtonModule&#45;&gt;BaseModule -->
<g id="edge13" class="edge">
<title>MatButtonModule&#45;&gt;BaseModule</title>
<path fill="none" stroke="#000000" d="M2280,-122.0511C2280,-136.373 2280,-154 2280,-154 2280,-154 2126.394,-154 2126.394,-154"/>
<polygon fill="#000000" stroke="#000000" points="2126.394,-150.5001 2116.394,-154 2126.3939,-157.5001 2126.394,-150.5001"/>
</g>
<!-- MatTableModule -->
<g id="node15" class="node">
<title>MatTableModule</title>
<polygon fill="#8dd3c7" stroke="#000000" points="2201.972,-122 2198.972,-126 2177.972,-126 2174.972,-122 2088.028,-122 2088.028,-86 2201.972,-86 2201.972,-122"/>
<text text-anchor="middle" x="2145" y="-99.8" font-family="Times,serif" font-size="14.00" fill="#000000">MatTableModule</text>
</g>
<!-- MatTableModule&#45;&gt;BaseModule -->
<g id="edge14" class="edge">
<title>MatTableModule&#45;&gt;BaseModule</title>
<path fill="none" stroke="#000000" d="M2102.197,-122.1061C2102.197,-122.1061 2102.197,-140.991 2102.197,-140.991"/>
<polygon fill="#000000" stroke="#000000" points="2098.6971,-140.9909 2102.197,-150.991 2105.6971,-140.991 2098.6971,-140.9909"/>
</g>
<!-- MatPaginatorModule -->
<g id="node16" class="node">
<title>MatPaginatorModule</title>
<polygon fill="#8dd3c7" stroke="#000000" points="2069.7534,-122 2066.7534,-126 2045.7534,-126 2042.7534,-122 1934.2466,-122 1934.2466,-86 2069.7534,-86 2069.7534,-122"/>
<text text-anchor="middle" x="2002" y="-99.8" font-family="Times,serif" font-size="14.00" fill="#000000">MatPaginatorModule</text>
</g>
<!-- MatPaginatorModule&#45;&gt;BaseModule -->
<g id="edge15" class="edge">
<title>MatPaginatorModule&#45;&gt;BaseModule</title>
<path fill="none" stroke="#000000" d="M2049.7483,-122.1061C2049.7483,-122.1061 2049.7483,-140.991 2049.7483,-140.991"/>
<polygon fill="#000000" stroke="#000000" points="2046.2483,-140.9909 2049.7483,-150.991 2053.2483,-140.991 2046.2483,-140.9909"/>
</g>
<!-- MatSortModule -->
<g id="node17" class="node">
<title>MatSortModule</title>
<polygon fill="#8dd3c7" stroke="#000000" points="1915.9343,-122 1912.9343,-126 1891.9343,-126 1888.9343,-122 1810.0657,-122 1810.0657,-86 1915.9343,-86 1915.9343,-122"/>
<text text-anchor="middle" x="1863" y="-99.8" font-family="Times,serif" font-size="14.00" fill="#000000">MatSortModule</text>
</g>
<!-- MatSortModule&#45;&gt;BaseModule -->
<g id="edge16" class="edge">
<title>MatSortModule&#45;&gt;BaseModule</title>
<path fill="none" stroke="#000000" d="M1863,-122.0511C1863,-136.373 1863,-154 1863,-154 1863,-154 2019.4879,-154 2019.4879,-154"/>
<polygon fill="#000000" stroke="#000000" points="2019.4879,-157.5001 2029.4879,-154 2019.4878,-150.5001 2019.4879,-157.5001"/>
</g>
<!-- MatListModule -->
<g id="node18" class="node">
<title>MatListModule</title>
<polygon fill="#8dd3c7" stroke="#000000" points="1791.8781,-122 1788.8781,-126 1767.8781,-126 1764.8781,-122 1688.1219,-122 1688.1219,-86 1791.8781,-86 1791.8781,-122"/>
<text text-anchor="middle" x="1740" y="-99.8" font-family="Times,serif" font-size="14.00" fill="#000000">MatListModule</text>
</g>
<!-- MatListModule&#45;&gt;BaseModule -->
<g id="edge17" class="edge">
<title>MatListModule&#45;&gt;BaseModule</title>
<path fill="none" stroke="#000000" d="M1740,-122.2396C1740,-137.5706 1740,-157 1740,-157 1740,-157 2019.4661,-157 2019.4661,-157"/>
<polygon fill="#000000" stroke="#000000" points="2019.4661,-160.5001 2029.4661,-157 2019.466,-153.5001 2019.4661,-160.5001"/>
</g>
<!-- MatExpansionModule -->
<g id="node19" class="node">
<title>MatExpansionModule</title>
<polygon fill="#8dd3c7" stroke="#000000" points="1669.7021,-122 1666.7021,-126 1645.7021,-126 1642.7021,-122 1528.2979,-122 1528.2979,-86 1669.7021,-86 1669.7021,-122"/>
<text text-anchor="middle" x="1599" y="-99.8" font-family="Times,serif" font-size="14.00" fill="#000000">MatExpansionModule</text>
</g>
<!-- MatExpansionModule&#45;&gt;BaseModule -->
<g id="edge18" class="edge">
<title>MatExpansionModule&#45;&gt;BaseModule</title>
<path fill="none" stroke="#000000" d="M1599,-122.0091C1599,-138.0494 1599,-159 1599,-159 1599,-159 2019.6791,-159 2019.6791,-159"/>
<polygon fill="#000000" stroke="#000000" points="2019.6791,-162.5001 2029.6791,-159 2019.6791,-155.5001 2019.6791,-162.5001"/>
</g>
<!-- MatCheckboxModule -->
<g id="node20" class="node">
<title>MatCheckboxModule</title>
<polygon fill="#8dd3c7" stroke="#000000" points="1510.3655,-122 1507.3655,-126 1486.3655,-126 1483.3655,-122 1371.6345,-122 1371.6345,-86 1510.3655,-86 1510.3655,-122"/>
<text text-anchor="middle" x="1441" y="-99.8" font-family="Times,serif" font-size="14.00" fill="#000000">MatCheckboxModule</text>
</g>
<!-- MatCheckboxModule&#45;&gt;BaseModule -->
<g id="edge19" class="edge">
<title>MatCheckboxModule&#45;&gt;BaseModule</title>
<path fill="none" stroke="#000000" d="M1441,-122.0336C1441,-139.0597 1441,-162 1441,-162 1441,-162 2019.5601,-162 2019.5601,-162"/>
<polygon fill="#000000" stroke="#000000" points="2019.5601,-165.5001 2029.5601,-162 2019.56,-158.5001 2019.5601,-165.5001"/>
</g>
<!-- MatProgressSpinnerModule -->
<g id="node21" class="node">
<title>MatProgressSpinnerModule</title>
<polygon fill="#8dd3c7" stroke="#000000" points="1353.8557,-122 1350.8557,-126 1329.8557,-126 1326.8557,-122 1180.1443,-122 1180.1443,-86 1353.8557,-86 1353.8557,-122"/>
<text text-anchor="middle" x="1267" y="-99.8" font-family="Times,serif" font-size="14.00" fill="#000000">MatProgressSpinnerModule</text>
</g>
<!-- MatProgressSpinnerModule&#45;&gt;BaseModule -->
<g id="edge20" class="edge">
<title>MatProgressSpinnerModule&#45;&gt;BaseModule</title>
<path fill="none" stroke="#000000" d="M1267,-122.002C1267,-139.6754 1267,-164 1267,-164 1267,-164 2019.6659,-164 2019.6659,-164"/>
<polygon fill="#000000" stroke="#000000" points="2019.666,-167.5001 2029.6659,-164 2019.6659,-160.5001 2019.666,-167.5001"/>
</g>
<!-- MatSnackBarModule -->
<g id="node22" class="node">
<title>MatSnackBarModule</title>
<polygon fill="#8dd3c7" stroke="#000000" points="1162.024,-122 1159.024,-126 1138.024,-126 1135.024,-122 1025.976,-122 1025.976,-86 1162.024,-86 1162.024,-122"/>
<text text-anchor="middle" x="1094" y="-99.8" font-family="Times,serif" font-size="14.00" fill="#000000">MatSnackBarModule</text>
</g>
<!-- MatSnackBarModule&#45;&gt;BaseModule -->
<g id="edge21" class="edge">
<title>MatSnackBarModule&#45;&gt;BaseModule</title>
<path fill="none" stroke="#000000" d="M1094,-122.2222C1094,-140.8285 1094,-167 1094,-167 1094,-167 2019.6704,-167 2019.6704,-167"/>
<polygon fill="#000000" stroke="#000000" points="2019.6704,-170.5001 2029.6704,-167 2019.6703,-163.5001 2019.6704,-170.5001"/>
</g>
<!-- MatSelectModule -->
<g id="node23" class="node">
<title>MatSelectModule</title>
<polygon fill="#8dd3c7" stroke="#000000" points="1008.3076,-122 1005.3076,-126 984.3076,-126 981.3076,-122 891.6924,-122 891.6924,-86 1008.3076,-86 1008.3076,-122"/>
<text text-anchor="middle" x="950" y="-99.8" font-family="Times,serif" font-size="14.00" fill="#000000">MatSelectModule</text>
</g>
<!-- MatSelectModule&#45;&gt;BaseModule -->
<g id="edge22" class="edge">
<title>MatSelectModule&#45;&gt;BaseModule</title>
<path fill="none" stroke="#000000" d="M950,-122.1061C950,-141.3391 950,-169 950,-169 950,-169 2019.6652,-169 2019.6652,-169"/>
<polygon fill="#000000" stroke="#000000" points="2019.6652,-172.5001 2029.6652,-169 2019.6651,-165.5001 2019.6652,-172.5001"/>
</g>
<!-- MatAutocompleteModule -->
<g id="node24" class="node">
<title>MatAutocompleteModule</title>
<polygon fill="#8dd3c7" stroke="#000000" points="873.9129,-122 870.9129,-126 849.9129,-126 846.9129,-122 712.0871,-122 712.0871,-86 873.9129,-86 873.9129,-122"/>
<text text-anchor="middle" x="793" y="-99.8" font-family="Times,serif" font-size="14.00" fill="#000000">MatAutocompleteModule</text>
</g>
<!-- MatAutocompleteModule&#45;&gt;BaseModule -->
<g id="edge23" class="edge">
<title>MatAutocompleteModule&#45;&gt;BaseModule</title>
<path fill="none" stroke="#000000" d="M793,-122.2228C793,-142.3652 793,-172 793,-172 793,-172 2019.6787,-172 2019.6787,-172"/>
<polygon fill="#000000" stroke="#000000" points="2019.6787,-175.5001 2029.6787,-172 2019.6786,-168.5001 2019.6787,-175.5001"/>
</g>
<!-- MatRadioModule -->
<g id="node25" class="node">
<title>MatRadioModule</title>
<polygon fill="#8dd3c7" stroke="#000000" points="694.5423,-122 691.5423,-126 670.5423,-126 667.5423,-122 579.4577,-122 579.4577,-86 694.5423,-86 694.5423,-122"/>
<text text-anchor="middle" x="637" y="-99.8" font-family="Times,serif" font-size="14.00" fill="#000000">MatRadioModule</text>
</g>
<!-- MatRadioModule&#45;&gt;BaseModule -->
<g id="edge24" class="edge">
<title>MatRadioModule&#45;&gt;BaseModule</title>
<path fill="none" stroke="#000000" d="M637,-122.2843C637,-143.3211 637,-175 637,-175 637,-175 2019.6321,-175 2019.6321,-175"/>
<polygon fill="#000000" stroke="#000000" points="2019.6322,-178.5001 2029.6321,-175 2019.6321,-171.5001 2019.6322,-178.5001"/>
</g>
<!-- MatTooltipModule -->
<g id="node26" class="node">
<title>MatTooltipModule</title>
<polygon fill="#8dd3c7" stroke="#000000" points="561.8244,-122 558.8244,-126 537.8244,-126 534.8244,-122 438.1756,-122 438.1756,-86 561.8244,-86 561.8244,-122"/>
<text text-anchor="middle" x="500" y="-99.8" font-family="Times,serif" font-size="14.00" fill="#000000">MatTooltipModule</text>
</g>
<!-- MatTooltipModule&#45;&gt;BaseModule -->
<g id="edge25" class="edge">
<title>MatTooltipModule&#45;&gt;BaseModule</title>
<path fill="none" stroke="#000000" d="M500,-122.0449C500,-143.6623 500,-177 500,-177 500,-177 2019.6996,-177 2019.6996,-177"/>
<polygon fill="#000000" stroke="#000000" points="2019.6997,-180.5001 2029.6996,-177 2019.6996,-173.5001 2019.6997,-180.5001"/>
</g>
<!-- AdminModule -->
<g id="node27" class="node">
<title>AdminModule</title>
<polygon fill="#8dd3c7" stroke="#000000" points="420.4386,-122 417.4386,-126 396.4386,-126 393.4386,-122 321.5614,-122 321.5614,-86 420.4386,-86 420.4386,-122"/>
<text text-anchor="middle" x="371" y="-99.8" font-family="Times,serif" font-size="14.00" fill="#000000">AdminModule</text>
</g>
<!-- AdminModule&#45;&gt;BaseModule -->
<g id="edge26" class="edge">
<title>AdminModule&#45;&gt;BaseModule</title>
<path fill="none" stroke="#000000" d="M371,-122.0109C371,-144.4852 371,-180 371,-180 371,-180 2019.648,-180 2019.648,-180"/>
<polygon fill="#000000" stroke="#000000" points="2019.6481,-183.5001 2029.648,-180 2019.648,-176.5001 2019.6481,-183.5001"/>
</g>
<!-- FileUploadModule -->
<g id="node28" class="node">
<title>FileUploadModule</title>
<polygon fill="#8dd3c7" stroke="#000000" points="304.0409,-122 301.0409,-126 280.0409,-126 277.0409,-122 181.9591,-122 181.9591,-86 304.0409,-86 304.0409,-122"/>
<text text-anchor="middle" x="243" y="-99.8" font-family="Times,serif" font-size="14.00" fill="#000000">FileUploadModule</text>
</g>
<!-- FileUploadModule&#45;&gt;BaseModule -->
<g id="edge27" class="edge">
<title>FileUploadModule&#45;&gt;BaseModule</title>
<path fill="none" stroke="#000000" d="M243,-122.0908C243,-145.1328 243,-182 243,-182 243,-182 2019.5688,-182 2019.5688,-182"/>
<polygon fill="#000000" stroke="#000000" points="2019.5688,-185.5001 2029.5688,-182 2019.5687,-178.5001 2019.5688,-185.5001"/>
</g>
<!-- NgbModule.forRoot() -->
<g id="node29" class="node">
<title>NgbModule.forRoot()</title>
<polygon fill="#8dd3c7" stroke="#000000" points="164.026,-122 161.026,-126 140.026,-126 137.026,-122 23.974,-122 23.974,-86 164.026,-86 164.026,-122"/>
<text text-anchor="middle" x="94" y="-99.8" font-family="Times,serif" font-size="14.00" fill="#000000">NgbModule.forRoot()</text>
</g>
<!-- NgbModule.forRoot()&#45;&gt;BaseModule -->
<g id="edge28" class="edge">
<title>NgbModule.forRoot()&#45;&gt;BaseModule</title>
<path fill="none" stroke="#000000" d="M94,-122.3802C94,-146.2785 94,-185 94,-185 94,-185 2019.3594,-185 2019.3594,-185"/>
<polygon fill="#000000" stroke="#000000" points="2019.3594,-188.5001 2029.3594,-185 2019.3593,-181.5001 2019.3594,-188.5001"/>
</g>
</g>
</svg>
