<?xml version="1.0" encoding="UTF-8" standalone="no"?>
<!DOCTYPE svg PUBLIC "-//W3C//DTD SVG 1.1//EN"
 "http://www.w3.org/Graphics/SVG/1.1/DTD/svg11.dtd">
<!-- Generated by graphviz version 2.40.1 (20161225.0304)
 -->
<!-- Title: dependencies Pages: 1 -->
<svg width="6817pt" height="284pt"
 viewBox="0.00 0.00 6817.00 284.00" xmlns="http://www.w3.org/2000/svg" xmlns:xlink="http://www.w3.org/1999/xlink">
<g id="graph0" class="graph" transform="scale(1 1) rotate(0) translate(4 280)">
<title>dependencies</title>
<polygon fill="#ffffff" stroke="transparent" points="-4,4 -4,-280 6813,-280 6813,4 -4,4"/>
<text text-anchor="start" x="3383.5091" y="-42.4" font-family="sans-serif" font-weight="bold" font-size="14.00" fill="#000000">Legend</text>
<polygon fill="#ffffb3" stroke="transparent" points="3170.5,-10 3170.5,-30 3190.5,-30 3190.5,-10 3170.5,-10"/>
<text text-anchor="start" x="3194.129" y="-15.4" font-family="sans-serif" font-size="14.00" fill="#000000"> &#160;Declarations</text>
<polygon fill="#8dd3c7" stroke="transparent" points="3283.5,-10 3283.5,-30 3303.5,-30 3303.5,-10 3283.5,-10"/>
<text text-anchor="start" x="3307.2251" y="-15.4" font-family="sans-serif" font-size="14.00" fill="#000000"> &#160;Module</text>
<polygon fill="#80b1d3" stroke="transparent" points="3369.5,-10 3369.5,-30 3389.5,-30 3389.5,-10 3369.5,-10"/>
<text text-anchor="start" x="3393.2812" y="-15.4" font-family="sans-serif" font-size="14.00" fill="#000000"> &#160;Bootstrap</text>
<polygon fill="#fdb462" stroke="transparent" points="3466.5,-10 3466.5,-30 3486.5,-30 3486.5,-10 3466.5,-10"/>
<text text-anchor="start" x="3490.1732" y="-15.4" font-family="sans-serif" font-size="14.00" fill="#000000"> &#160;Providers</text>
<polygon fill="#fb8072" stroke="transparent" points="3562.5,-10 3562.5,-30 3582.5,-30 3582.5,-10 3562.5,-10"/>
<text text-anchor="start" x="3586.2258" y="-15.4" font-family="sans-serif" font-size="14.00" fill="#000000"> &#160;Exports</text>
<g id="clust1" class="cluster">
<title>cluster_AdminModule</title>
<polygon fill="none" stroke="#000000" stroke-dasharray="1,5" points="8,-70 8,-268 6801,-268 6801,-70 8,-70"/>
</g>
<g id="clust2" class="cluster">
<title>cluster_AdminModule_declarations</title>
<polygon fill="none" stroke="#000000" points="4133,-78 4133,-130 6793,-130 6793,-78 4133,-78"/>
</g>
<g id="clust21" class="cluster">
<title>cluster_AdminModule_imports</title>
<polygon fill="none" stroke="#000000" points="16,-78 16,-130 4125,-130 4125,-78 16,-78"/>
</g>
<g id="clust23" class="cluster">
<title>cluster_AdminModule_bootstrap</title>
<polygon fill="none" stroke="#000000" points="3292,-208 3292,-260 3432,-260 3432,-208 3292,-208"/>
</g>
<!-- AdminComponent -->
<g id="node1" class="node">
<title>AdminComponent</title>
<polygon fill="#ffffb3" stroke="#000000" points="6785.2204,-122 6664.7796,-122 6664.7796,-86 6785.2204,-86 6785.2204,-122"/>
<text text-anchor="middle" x="6725" y="-99.8" font-family="Times,serif" font-size="14.00" fill="#000000">AdminComponent</text>
</g>
<!-- AdminModule -->
<g id="node19" class="node">
<title>AdminModule</title>
<polygon fill="#8dd3c7" stroke="#000000" points="3411.4386,-187 3408.4386,-191 3387.4386,-191 3384.4386,-187 3312.5614,-187 3312.5614,-151 3411.4386,-151 3411.4386,-187"/>
<text text-anchor="middle" x="3362" y="-164.8" font-family="Times,serif" font-size="14.00" fill="#000000">AdminModule</text>
</g>
<!-- AdminComponent&#45;&gt;AdminModule -->
<g id="edge1" class="edge">
<title>AdminComponent&#45;&gt;AdminModule</title>
<path fill="none" stroke="#000000" d="M6725,-122.1985C6725,-146.3563 6725,-186 6725,-186 6725,-186 3421.4912,-186 3421.4912,-186"/>
<polygon fill="#000000" stroke="#000000" points="3421.4912,-182.5001 3411.4912,-186 3421.4911,-189.5001 3421.4912,-182.5001"/>
</g>
<!-- DashboardComponent -->
<g id="node2" class="node">
<title>DashboardComponent</title>
<polygon fill="#ffffb3" stroke="#000000" points="6646.9734,-122 6505.0266,-122 6505.0266,-86 6646.9734,-86 6646.9734,-122"/>
<text text-anchor="middle" x="6576" y="-99.8" font-family="Times,serif" font-size="14.00" fill="#000000">DashboardComponent</text>
</g>
<!-- DashboardComponent&#45;&gt;AdminModule -->
<g id="edge2" class="edge">
<title>DashboardComponent&#45;&gt;AdminModule</title>
<path fill="none" stroke="#000000" d="M6576,-122.1532C6576,-145.7566 6576,-184 6576,-184 6576,-184 3421.5182,-184 3421.5182,-184"/>
<polygon fill="#000000" stroke="#000000" points="3421.5182,-180.5001 3411.5182,-184 3421.5182,-187.5001 3421.5182,-180.5001"/>
</g>
<!-- UsersComponent -->
<g id="node3" class="node">
<title>UsersComponent</title>
<polygon fill="#ffffb3" stroke="#000000" points="6486.7036,-122 6373.2964,-122 6373.2964,-86 6486.7036,-86 6486.7036,-122"/>
<text text-anchor="middle" x="6430" y="-99.8" font-family="Times,serif" font-size="14.00" fill="#000000">UsersComponent</text>
</g>
<!-- UsersComponent&#45;&gt;AdminModule -->
<g id="edge3" class="edge">
<title>UsersComponent&#45;&gt;AdminModule</title>
<path fill="none" stroke="#000000" d="M6430,-122.3228C6430,-145.6602 6430,-183 6430,-183 6430,-183 3421.4336,-183 3421.4336,-183"/>
<polygon fill="#000000" stroke="#000000" points="3421.4336,-179.5001 3411.4336,-183 3421.4336,-186.5001 3421.4336,-179.5001"/>
</g>
<!-- PagesComponent -->
<g id="node4" class="node">
<title>PagesComponent</title>
<polygon fill="#ffffb3" stroke="#000000" points="6354.9888,-122 6241.0112,-122 6241.0112,-86 6354.9888,-86 6354.9888,-122"/>
<text text-anchor="middle" x="6298" y="-99.8" font-family="Times,serif" font-size="14.00" fill="#000000">PagesComponent</text>
</g>
<!-- PagesComponent&#45;&gt;AdminModule -->
<g id="edge4" class="edge">
<title>PagesComponent&#45;&gt;AdminModule</title>
<path fill="none" stroke="#000000" d="M6298,-122.2479C6298,-145.0179 6298,-181 6298,-181 6298,-181 3421.4221,-181 3421.4221,-181"/>
<polygon fill="#000000" stroke="#000000" points="3421.4222,-177.5001 3411.4221,-181 3421.4221,-184.5001 3421.4222,-177.5001"/>
</g>
<!-- AddPageComponent -->
<g id="node5" class="node">
<title>AddPageComponent</title>
<polygon fill="#ffffb3" stroke="#000000" points="6223.1513,-122 6090.8487,-122 6090.8487,-86 6223.1513,-86 6223.1513,-122"/>
<text text-anchor="middle" x="6157" y="-99.8" font-family="Times,serif" font-size="14.00" fill="#000000">AddPageComponent</text>
</g>
<!-- AddPageComponent&#45;&gt;AdminModule -->
<g id="edge5" class="edge">
<title>AddPageComponent&#45;&gt;AdminModule</title>
<path fill="none" stroke="#000000" d="M6157,-122.0109C6157,-144.4852 6157,-180 6157,-180 6157,-180 3421.4009,-180 3421.4009,-180"/>
<polygon fill="#000000" stroke="#000000" points="3421.4009,-176.5001 3411.4009,-180 3421.4008,-183.5001 3421.4009,-176.5001"/>
</g>
<!-- EditPageComponent -->
<g id="node6" class="node">
<title>EditPageComponent</title>
<polygon fill="#ffffb3" stroke="#000000" points="6072.8781,-122 5941.1219,-122 5941.1219,-86 6072.8781,-86 6072.8781,-122"/>
<text text-anchor="middle" x="6007" y="-99.8" font-family="Times,serif" font-size="14.00" fill="#000000">EditPageComponent</text>
</g>
<!-- EditPageComponent&#45;&gt;AdminModule -->
<g id="edge6" class="edge">
<title>EditPageComponent&#45;&gt;AdminModule</title>
<path fill="none" stroke="#000000" d="M6007,-122.2921C6007,-144.2057 6007,-178 6007,-178 6007,-178 3421.3148,-178 3421.3148,-178"/>
<polygon fill="#000000" stroke="#000000" points="3421.3149,-174.5001 3411.3148,-178 3421.3148,-181.5001 3421.3149,-174.5001"/>
</g>
<!-- DeletionComponent -->
<g id="node7" class="node">
<title>DeletionComponent</title>
<polygon fill="#ffffb3" stroke="#000000" points="5922.5408,-122 5793.4592,-122 5793.4592,-86 5922.5408,-86 5922.5408,-122"/>
<text text-anchor="middle" x="5858" y="-99.8" font-family="Times,serif" font-size="14.00" fill="#000000">DeletionComponent</text>
</g>
<!-- DeletionComponent&#45;&gt;AdminModule -->
<g id="edge7" class="edge">
<title>DeletionComponent&#45;&gt;AdminModule</title>
<path fill="none" stroke="#000000" d="M5858,-122.0449C5858,-143.6623 5858,-177 5858,-177 5858,-177 3421.2975,-177 3421.2975,-177"/>
<polygon fill="#000000" stroke="#000000" points="3421.2975,-173.5001 3411.2975,-177 3421.2974,-180.5001 3421.2975,-173.5001"/>
</g>
<!-- PostsComponent -->
<g id="node8" class="node">
<title>PostsComponent</title>
<polygon fill="#ffffb3" stroke="#000000" points="5775.3948,-122 5664.6052,-122 5664.6052,-86 5775.3948,-86 5775.3948,-122"/>
<text text-anchor="middle" x="5720" y="-99.8" font-family="Times,serif" font-size="14.00" fill="#000000">PostsComponent</text>
</g>
<!-- PostsComponent&#45;&gt;AdminModule -->
<g id="edge8" class="edge">
<title>PostsComponent&#45;&gt;AdminModule</title>
<path fill="none" stroke="#000000" d="M5720,-122.2843C5720,-143.3211 5720,-175 5720,-175 5720,-175 3421.2502,-175 3421.2502,-175"/>
<polygon fill="#000000" stroke="#000000" points="3421.2502,-171.5001 3411.2502,-175 3421.2501,-178.5001 3421.2502,-171.5001"/>
</g>
<!-- DetailsComponent -->
<g id="node9" class="node">
<title>DetailsComponent</title>
<polygon fill="#ffffb3" stroke="#000000" points="5646.4846,-122 5525.5154,-122 5525.5154,-86 5646.4846,-86 5646.4846,-122"/>
<text text-anchor="middle" x="5586" y="-99.8" font-family="Times,serif" font-size="14.00" fill="#000000">DetailsComponent</text>
</g>
<!-- DetailsComponent&#45;&gt;AdminModule -->
<g id="edge9" class="edge">
<title>DetailsComponent&#45;&gt;AdminModule</title>
<path fill="none" stroke="#000000" d="M5586,-122.0267C5586,-142.7672 5586,-174 5586,-174 5586,-174 3421.3062,-174 3421.3062,-174"/>
<polygon fill="#000000" stroke="#000000" points="3421.3062,-170.5001 3411.3062,-174 3421.3061,-177.5001 3421.3062,-170.5001"/>
</g>
<!-- SettingsComponent -->
<g id="node10" class="node">
<title>SettingsComponent</title>
<polygon fill="#ffffb3" stroke="#000000" points="5507.4468,-122 5380.5532,-122 5380.5532,-86 5507.4468,-86 5507.4468,-122"/>
<text text-anchor="middle" x="5444" y="-99.8" font-family="Times,serif" font-size="14.00" fill="#000000">SettingsComponent</text>
</g>
<!-- SettingsComponent&#45;&gt;AdminModule -->
<g id="edge10" class="edge">
<title>SettingsComponent&#45;&gt;AdminModule</title>
<path fill="none" stroke="#000000" d="M5444,-122.2228C5444,-142.3652 5444,-172 5444,-172 5444,-172 3421.4119,-172 3421.4119,-172"/>
<polygon fill="#000000" stroke="#000000" points="3421.412,-168.5001 3411.4119,-172 3421.4119,-175.5001 3421.412,-168.5001"/>
</g>
<!-- ChangepasswordComponent -->
<g id="node11" class="node">
<title>ChangepasswordComponent</title>
<polygon fill="#ffffb3" stroke="#000000" points="5362.4692,-122 5185.5308,-122 5185.5308,-86 5362.4692,-86 5362.4692,-122"/>
<text text-anchor="middle" x="5274" y="-99.8" font-family="Times,serif" font-size="14.00" fill="#000000">ChangepasswordComponent</text>
</g>
<!-- ChangepasswordComponent&#45;&gt;AdminModule -->
<g id="edge11" class="edge">
<title>ChangepasswordComponent&#45;&gt;AdminModule</title>
<path fill="none" stroke="#000000" d="M5274,-122.308C5274,-142.1455 5274,-171 5274,-171 5274,-171 3421.6705,-171 3421.6705,-171"/>
<polygon fill="#000000" stroke="#000000" points="3421.6705,-167.5001 3411.6705,-171 3421.6704,-174.5001 3421.6705,-167.5001"/>
</g>
<!-- ProfileComponent -->
<g id="node12" class="node">
<title>ProfileComponent</title>
<polygon fill="#ffffb3" stroke="#000000" points="5167.9328,-122 5048.0672,-122 5048.0672,-86 5167.9328,-86 5167.9328,-122"/>
<text text-anchor="middle" x="5108" y="-99.8" font-family="Times,serif" font-size="14.00" fill="#000000">ProfileComponent</text>
</g>
<!-- ProfileComponent&#45;&gt;AdminModule -->
<g id="edge12" class="edge">
<title>ProfileComponent&#45;&gt;AdminModule</title>
<path fill="none" stroke="#000000" d="M5108,-122.1061C5108,-141.3391 5108,-169 5108,-169 5108,-169 3421.4419,-169 3421.4419,-169"/>
<polygon fill="#000000" stroke="#000000" points="3421.4419,-165.5001 3411.4419,-169 3421.4418,-172.5001 3421.4419,-165.5001"/>
</g>
<!-- ReportsComponent -->
<g id="node13" class="node">
<title>ReportsComponent</title>
<polygon fill="#ffffb3" stroke="#000000" points="5030.3795,-122 4905.6205,-122 4905.6205,-86 5030.3795,-86 5030.3795,-122"/>
<text text-anchor="middle" x="4968" y="-99.8" font-family="Times,serif" font-size="14.00" fill="#000000">ReportsComponent</text>
</g>
<!-- ReportsComponent&#45;&gt;AdminModule -->
<g id="edge13" class="edge">
<title>ReportsComponent&#45;&gt;AdminModule</title>
<path fill="none" stroke="#000000" d="M4968,-122.1686C4968,-141.0898 4968,-168 4968,-168 4968,-168 3421.3825,-168 3421.3825,-168"/>
<polygon fill="#000000" stroke="#000000" points="3421.3825,-164.5001 3411.3825,-168 3421.3824,-171.5001 3421.3825,-164.5001"/>
</g>
<!-- SiteSettingComponent -->
<g id="node14" class="node">
<title>SiteSettingComponent</title>
<polygon fill="#ffffb3" stroke="#000000" points="4887.28,-122 4744.72,-122 4744.72,-86 4887.28,-86 4887.28,-122"/>
<text text-anchor="middle" x="4816" y="-99.8" font-family="Times,serif" font-size="14.00" fill="#000000">SiteSettingComponent</text>
</g>
<!-- SiteSettingComponent&#45;&gt;AdminModule -->
<g id="edge14" class="edge">
<title>SiteSettingComponent&#45;&gt;AdminModule</title>
<path fill="none" stroke="#000000" d="M4816,-122.2667C4816,-140.5552 4816,-166 4816,-166 4816,-166 3421.6293,-166 3421.6293,-166"/>
<polygon fill="#000000" stroke="#000000" points="3421.6294,-162.5001 3411.6293,-166 3421.6293,-169.5001 3421.6294,-162.5001"/>
</g>
<!-- MailsettingComponent -->
<g id="node15" class="node">
<title>MailsettingComponent</title>
<polygon fill="#ffffb3" stroke="#000000" points="4726.6038,-122 4581.3962,-122 4581.3962,-86 4726.6038,-86 4726.6038,-122"/>
<text text-anchor="middle" x="4654" y="-99.8" font-family="Times,serif" font-size="14.00" fill="#000000">MailsettingComponent</text>
</g>
<!-- MailsettingComponent&#45;&gt;AdminModule -->
<g id="edge15" class="edge">
<title>MailsettingComponent&#45;&gt;AdminModule</title>
<path fill="none" stroke="#000000" d="M4654,-122.302C4654,-140.2699 4654,-165 4654,-165 4654,-165 3421.4626,-165 3421.4626,-165"/>
<polygon fill="#000000" stroke="#000000" points="3421.4626,-161.5001 3411.4626,-165 3421.4625,-168.5001 3421.4626,-161.5001"/>
</g>
<!-- MailtemplateComponent -->
<g id="node16" class="node">
<title>MailtemplateComponent</title>
<polygon fill="#ffffb3" stroke="#000000" points="4562.979,-122 4407.021,-122 4407.021,-86 4562.979,-86 4562.979,-122"/>
<text text-anchor="middle" x="4485" y="-99.8" font-family="Times,serif" font-size="14.00" fill="#000000">MailtemplateComponent</text>
</g>
<!-- MailtemplateComponent&#45;&gt;AdminModule -->
<g id="edge16" class="edge">
<title>MailtemplateComponent&#45;&gt;AdminModule</title>
<path fill="none" stroke="#000000" d="M4485,-122.0225C4485,-139.3734 4485,-163 4485,-163 4485,-163 3421.3389,-163 3421.3389,-163"/>
<polygon fill="#000000" stroke="#000000" points="3421.3389,-159.5001 3411.3389,-163 3421.3388,-166.5001 3421.3389,-159.5001"/>
</g>
<!-- TruncatetextPipe -->
<g id="node17" class="node">
<title>TruncatetextPipe</title>
<polygon fill="#ffffb3" stroke="#000000" points="4388.6318,-122 4277.3682,-122 4277.3682,-86 4388.6318,-86 4388.6318,-122"/>
<text text-anchor="middle" x="4333" y="-99.8" font-family="Times,serif" font-size="14.00" fill="#000000">TruncatetextPipe</text>
</g>
<!-- TruncatetextPipe&#45;&gt;AdminModule -->
<g id="edge17" class="edge">
<title>TruncatetextPipe&#45;&gt;AdminModule</title>
<path fill="none" stroke="#000000" d="M4333,-122.0336C4333,-139.0597 4333,-162 4333,-162 4333,-162 3421.487,-162 3421.487,-162"/>
<polygon fill="#000000" stroke="#000000" points="3421.487,-158.5001 3411.487,-162 3421.4869,-165.5001 3421.487,-158.5001"/>
</g>
<!-- FooterComponent -->
<g id="node18" class="node">
<title>FooterComponent</title>
<polygon fill="#ffffb3" stroke="#000000" points="4258.8809,-122 4141.1191,-122 4141.1191,-86 4258.8809,-86 4258.8809,-122"/>
<text text-anchor="middle" x="4200" y="-99.8" font-family="Times,serif" font-size="14.00" fill="#000000">FooterComponent</text>
</g>
<!-- FooterComponent&#45;&gt;AdminModule -->
<g id="edge18" class="edge">
<title>FooterComponent&#45;&gt;AdminModule</title>
<path fill="none" stroke="#000000" d="M4200,-122.027C4200,-138.3976 4200,-160 4200,-160 4200,-160 3421.2922,-160 3421.2922,-160"/>
<polygon fill="#000000" stroke="#000000" points="3421.2922,-156.5001 3411.2922,-160 3421.2921,-163.5001 3421.2922,-156.5001"/>
</g>
<!-- AdminComponent  -->
<g id="node49" class="node">
<title>AdminComponent </title>
<polygon fill="#80b1d3" stroke="#000000" points="3423.7205,-252 3300.2795,-252 3300.2795,-216 3423.7205,-216 3423.7205,-252"/>
<text text-anchor="middle" x="3362" y="-229.8" font-family="Times,serif" font-size="14.00" fill="#000000">AdminComponent </text>
</g>
<!-- AdminModule&#45;&gt;AdminComponent  -->
<g id="edge48" class="edge">
<title>AdminModule&#45;&gt;AdminComponent </title>
<path fill="none" stroke="#000000" stroke-dasharray="1,5" d="M3362,-187.1061C3362,-187.1061 3362,-205.991 3362,-205.991"/>
<polygon fill="#000000" stroke="#000000" points="3358.5001,-205.9909 3362,-215.991 3365.5001,-205.991 3358.5001,-205.9909"/>
</g>
<!-- CommonModule -->
<g id="node20" class="node">
<title>CommonModule</title>
<polygon fill="#8dd3c7" stroke="#000000" points="4116.6681,-122 4113.6681,-126 4092.6681,-126 4089.6681,-122 4005.3319,-122 4005.3319,-86 4116.6681,-86 4116.6681,-122"/>
<text text-anchor="middle" x="4061" y="-99.8" font-family="Times,serif" font-size="14.00" fill="#000000">CommonModule</text>
</g>
<!-- CommonModule&#45;&gt;AdminModule -->
<g id="edge19" class="edge">
<title>CommonModule&#45;&gt;AdminModule</title>
<path fill="none" stroke="#000000" d="M4061,-122.0091C4061,-138.0494 4061,-159 4061,-159 4061,-159 3421.4308,-159 3421.4308,-159"/>
<polygon fill="#000000" stroke="#000000" points="3421.4309,-155.5001 3411.4308,-159 3421.4308,-162.5001 3421.4309,-155.5001"/>
</g>
<!-- AdminRoutingModule -->
<g id="node21" class="node">
<title>AdminRoutingModule</title>
<polygon fill="#8dd3c7" stroke="#000000" points="3986.5561,-122 3983.5561,-126 3962.5561,-126 3959.5561,-122 3843.4439,-122 3843.4439,-86 3986.5561,-86 3986.5561,-122"/>
<text text-anchor="middle" x="3915" y="-99.8" font-family="Times,serif" font-size="14.00" fill="#000000">AdminRoutingModule</text>
</g>
<!-- AdminRoutingModule&#45;&gt;AdminModule -->
<g id="edge20" class="edge">
<title>AdminRoutingModule&#45;&gt;AdminModule</title>
<path fill="none" stroke="#000000" d="M3915,-122.2396C3915,-137.5706 3915,-157 3915,-157 3915,-157 3421.5617,-157 3421.5617,-157"/>
<polygon fill="#000000" stroke="#000000" points="3421.5618,-153.5001 3411.5617,-157 3421.5617,-160.5001 3421.5618,-153.5001"/>
</g>
<!-- MatTableModule -->
<g id="node22" class="node">
<title>MatTableModule</title>
<polygon fill="#8dd3c7" stroke="#000000" points="3824.972,-122 3821.972,-126 3800.972,-126 3797.972,-122 3711.028,-122 3711.028,-86 3824.972,-86 3824.972,-122"/>
<text text-anchor="middle" x="3768" y="-99.8" font-family="Times,serif" font-size="14.00" fill="#000000">MatTableModule</text>
</g>
<!-- MatTableModule&#45;&gt;AdminModule -->
<g id="edge21" class="edge">
<title>MatTableModule&#45;&gt;AdminModule</title>
<path fill="none" stroke="#000000" d="M3768,-122.1871C3768,-137.1824 3768,-156 3768,-156 3768,-156 3421.3777,-156 3421.3777,-156"/>
<polygon fill="#000000" stroke="#000000" points="3421.3777,-152.5001 3411.3777,-156 3421.3776,-159.5001 3421.3777,-152.5001"/>
</g>
<!-- MatPaginatorModule -->
<g id="node23" class="node">
<title>MatPaginatorModule</title>
<polygon fill="#8dd3c7" stroke="#000000" points="3692.7534,-122 3689.7534,-126 3668.7534,-126 3665.7534,-122 3557.2466,-122 3557.2466,-86 3692.7534,-86 3692.7534,-122"/>
<text text-anchor="middle" x="3625" y="-99.8" font-family="Times,serif" font-size="14.00" fill="#000000">MatPaginatorModule</text>
</g>
<!-- MatPaginatorModule&#45;&gt;AdminModule -->
<g id="edge22" class="edge">
<title>MatPaginatorModule&#45;&gt;AdminModule</title>
<path fill="none" stroke="#000000" d="M3625,-122.0511C3625,-136.373 3625,-154 3625,-154 3625,-154 3421.4683,-154 3421.4683,-154"/>
<polygon fill="#000000" stroke="#000000" points="3421.4683,-150.5001 3411.4683,-154 3421.4683,-157.5001 3421.4683,-150.5001"/>
</g>
<!-- MatSortModule -->
<g id="node24" class="node">
<title>MatSortModule</title>
<polygon fill="#8dd3c7" stroke="#000000" points="3538.9343,-122 3535.9343,-126 3514.9343,-126 3511.9343,-122 3433.0657,-122 3433.0657,-86 3538.9343,-86 3538.9343,-122"/>
<text text-anchor="middle" x="3486" y="-99.8" font-family="Times,serif" font-size="14.00" fill="#000000">MatSortModule</text>
</g>
<!-- MatSortModule&#45;&gt;AdminModule -->
<g id="edge23" class="edge">
<title>MatSortModule&#45;&gt;AdminModule</title>
<path fill="none" stroke="#000000" d="M3486,-122.2458C3486,-136.1772 3486,-153 3486,-153 3486,-153 3421.3644,-153 3421.3644,-153"/>
<polygon fill="#000000" stroke="#000000" points="3421.3644,-149.5001 3411.3644,-153 3421.3643,-156.5001 3421.3644,-149.5001"/>
</g>
<!-- MatIconModule -->
<g id="node25" class="node">
<title>MatIconModule</title>
<polygon fill="#8dd3c7" stroke="#000000" points="3415.4748,-122 3412.4748,-126 3391.4748,-126 3388.4748,-122 3308.5252,-122 3308.5252,-86 3415.4748,-86 3415.4748,-122"/>
<text text-anchor="middle" x="3362" y="-99.8" font-family="Times,serif" font-size="14.00" fill="#000000">MatIconModule</text>
</g>
<!-- MatIconModule&#45;&gt;AdminModule -->
<g id="edge24" class="edge">
<title>MatIconModule&#45;&gt;AdminModule</title>
<path fill="none" stroke="#000000" d="M3362,-122.1061C3362,-122.1061 3362,-140.991 3362,-140.991"/>
<polygon fill="#000000" stroke="#000000" points="3358.5001,-140.9909 3362,-150.991 3365.5001,-140.991 3358.5001,-140.9909"/>
</g>
<!-- MatSidenavModule -->
<g id="node26" class="node">
<title>MatSidenavModule</title>
<polygon fill="#8dd3c7" stroke="#000000" points="3290.7022,-122 3287.7022,-126 3266.7022,-126 3263.7022,-122 3163.2978,-122 3163.2978,-86 3290.7022,-86 3290.7022,-122"/>
<text text-anchor="middle" x="3227" y="-99.8" font-family="Times,serif" font-size="14.00" fill="#000000">MatSidenavModule</text>
</g>
<!-- MatSidenavModule&#45;&gt;AdminModule -->
<g id="edge25" class="edge">
<title>MatSidenavModule&#45;&gt;AdminModule</title>
<path fill="none" stroke="#000000" d="M3227,-122.2458C3227,-136.1772 3227,-153 3227,-153 3227,-153 3302.4976,-153 3302.4976,-153"/>
<polygon fill="#000000" stroke="#000000" points="3302.4976,-156.5001 3312.4976,-153 3302.4975,-149.5001 3302.4976,-156.5001"/>
</g>
<!-- MatDialogModule -->
<g id="node27" class="node">
<title>MatDialogModule</title>
<polygon fill="#8dd3c7" stroke="#000000" points="3145.2022,-122 3142.2022,-126 3121.2022,-126 3118.2022,-122 3024.7978,-122 3024.7978,-86 3145.2022,-86 3145.2022,-122"/>
<text text-anchor="middle" x="3085" y="-99.8" font-family="Times,serif" font-size="14.00" fill="#000000">MatDialogModule</text>
</g>
<!-- MatDialogModule&#45;&gt;AdminModule -->
<g id="edge26" class="edge">
<title>MatDialogModule&#45;&gt;AdminModule</title>
<path fill="none" stroke="#000000" d="M3085,-122.0511C3085,-136.373 3085,-154 3085,-154 3085,-154 3302.478,-154 3302.478,-154"/>
<polygon fill="#000000" stroke="#000000" points="3302.478,-157.5001 3312.478,-154 3302.4779,-150.5001 3302.478,-157.5001"/>
</g>
<!-- MatFormFieldModule -->
<g id="node28" class="node">
<title>MatFormFieldModule</title>
<polygon fill="#8dd3c7" stroke="#000000" points="3006.712,-122 3003.712,-126 2982.712,-126 2979.712,-122 2865.288,-122 2865.288,-86 3006.712,-86 3006.712,-122"/>
<text text-anchor="middle" x="2936" y="-99.8" font-family="Times,serif" font-size="14.00" fill="#000000">MatFormFieldModule</text>
</g>
<!-- MatFormFieldModule&#45;&gt;AdminModule -->
<g id="edge27" class="edge">
<title>MatFormFieldModule&#45;&gt;AdminModule</title>
<path fill="none" stroke="#000000" d="M2936,-122.1871C2936,-137.1824 2936,-156 2936,-156 2936,-156 3302.7162,-156 3302.7162,-156"/>
<polygon fill="#000000" stroke="#000000" points="3302.7163,-159.5001 3312.7162,-156 3302.7162,-152.5001 3302.7163,-159.5001"/>
</g>
<!-- MatMenuModule -->
<g id="node29" class="node">
<title>MatMenuModule</title>
<polygon fill="#8dd3c7" stroke="#000000" points="2847.2591,-122 2844.2591,-126 2823.2591,-126 2820.2591,-122 2732.7409,-122 2732.7409,-86 2847.2591,-86 2847.2591,-122"/>
<text text-anchor="middle" x="2790" y="-99.8" font-family="Times,serif" font-size="14.00" fill="#000000">MatMenuModule</text>
</g>
<!-- MatMenuModule&#45;&gt;AdminModule -->
<g id="edge28" class="edge">
<title>MatMenuModule&#45;&gt;AdminModule</title>
<path fill="none" stroke="#000000" d="M2790,-122.2396C2790,-137.5706 2790,-157 2790,-157 2790,-157 3302.7365,-157 3302.7365,-157"/>
<polygon fill="#000000" stroke="#000000" points="3302.7366,-160.5001 3312.7365,-157 3302.7365,-153.5001 3302.7366,-160.5001"/>
</g>
<!-- MatInputModule -->
<g id="node30" class="node">
<title>MatInputModule</title>
<polygon fill="#8dd3c7" stroke="#000000" points="2714.6513,-122 2711.6513,-126 2690.6513,-126 2687.6513,-122 2603.3487,-122 2603.3487,-86 2714.6513,-86 2714.6513,-122"/>
<text text-anchor="middle" x="2659" y="-99.8" font-family="Times,serif" font-size="14.00" fill="#000000">MatInputModule</text>
</g>
<!-- MatInputModule&#45;&gt;AdminModule -->
<g id="edge29" class="edge">
<title>MatInputModule&#45;&gt;AdminModule</title>
<path fill="none" stroke="#000000" d="M2659,-122.0091C2659,-138.0494 2659,-159 2659,-159 2659,-159 3302.5664,-159 3302.5664,-159"/>
<polygon fill="#000000" stroke="#000000" points="3302.5664,-162.5001 3312.5664,-159 3302.5664,-155.5001 3302.5664,-162.5001"/>
</g>
<!-- MatButtonModule -->
<g id="node31" class="node">
<title>MatButtonModule</title>
<polygon fill="#8dd3c7" stroke="#000000" points="2585.2176,-122 2582.2176,-126 2561.2176,-126 2558.2176,-122 2464.7824,-122 2464.7824,-86 2585.2176,-86 2585.2176,-122"/>
<text text-anchor="middle" x="2525" y="-99.8" font-family="Times,serif" font-size="14.00" fill="#000000">MatButtonModule</text>
</g>
<!-- MatButtonModule&#45;&gt;AdminModule -->
<g id="edge30" class="edge">
<title>MatButtonModule&#45;&gt;AdminModule</title>
<path fill="none" stroke="#000000" d="M2525,-122.027C2525,-138.3976 2525,-160 2525,-160 2525,-160 3302.7667,-160 3302.7667,-160"/>
<polygon fill="#000000" stroke="#000000" points="3302.7667,-163.5001 3312.7667,-160 3302.7666,-156.5001 3302.7667,-163.5001"/>
</g>
<!-- MatCheckboxModule -->
<g id="node32" class="node">
<title>MatCheckboxModule</title>
<polygon fill="#8dd3c7" stroke="#000000" points="2446.3655,-122 2443.3655,-126 2422.3655,-126 2419.3655,-122 2307.6345,-122 2307.6345,-86 2446.3655,-86 2446.3655,-122"/>
<text text-anchor="middle" x="2377" y="-99.8" font-family="Times,serif" font-size="14.00" fill="#000000">MatCheckboxModule</text>
</g>
<!-- MatCheckboxModule&#45;&gt;AdminModule -->
<g id="edge31" class="edge">
<title>MatCheckboxModule&#45;&gt;AdminModule</title>
<path fill="none" stroke="#000000" d="M2377,-122.0336C2377,-139.0597 2377,-162 2377,-162 2377,-162 3302.4787,-162 3302.4787,-162"/>
<polygon fill="#000000" stroke="#000000" points="3302.4787,-165.5001 3312.4787,-162 3302.4786,-158.5001 3302.4787,-165.5001"/>
</g>
<!-- MatRadioModule -->
<g id="node33" class="node">
<title>MatRadioModule</title>
<polygon fill="#8dd3c7" stroke="#000000" points="2289.5423,-122 2286.5423,-126 2265.5423,-126 2262.5423,-122 2174.4577,-122 2174.4577,-86 2289.5423,-86 2289.5423,-122"/>
<text text-anchor="middle" x="2232" y="-99.8" font-family="Times,serif" font-size="14.00" fill="#000000">MatRadioModule</text>
</g>
<!-- MatRadioModule&#45;&gt;AdminModule -->
<g id="edge32" class="edge">
<title>MatRadioModule&#45;&gt;AdminModule</title>
<path fill="none" stroke="#000000" d="M2232,-122.0225C2232,-139.3734 2232,-163 2232,-163 2232,-163 3302.7187,-163 3302.7187,-163"/>
<polygon fill="#000000" stroke="#000000" points="3302.7187,-166.5001 3312.7187,-163 3302.7187,-159.5001 3302.7187,-166.5001"/>
</g>
<!-- MatProgressSpinnerModule -->
<g id="node34" class="node">
<title>MatProgressSpinnerModule</title>
<polygon fill="#8dd3c7" stroke="#000000" points="2155.8557,-122 2152.8557,-126 2131.8557,-126 2128.8557,-122 1982.1443,-122 1982.1443,-86 2155.8557,-86 2155.8557,-122"/>
<text text-anchor="middle" x="2069" y="-99.8" font-family="Times,serif" font-size="14.00" fill="#000000">MatProgressSpinnerModule</text>
</g>
<!-- MatProgressSpinnerModule&#45;&gt;AdminModule -->
<g id="edge33" class="edge">
<title>MatProgressSpinnerModule&#45;&gt;AdminModule</title>
<path fill="none" stroke="#000000" d="M2069,-122.302C2069,-140.2699 2069,-165 2069,-165 2069,-165 3302.4992,-165 3302.4992,-165"/>
<polygon fill="#000000" stroke="#000000" points="3302.4992,-168.5001 3312.4992,-165 3302.4991,-161.5001 3302.4992,-168.5001"/>
</g>
<!-- MatSnackBarModule -->
<g id="node35" class="node">
<title>MatSnackBarModule</title>
<polygon fill="#8dd3c7" stroke="#000000" points="1964.024,-122 1961.024,-126 1940.024,-126 1937.024,-122 1827.976,-122 1827.976,-86 1964.024,-86 1964.024,-122"/>
<text text-anchor="middle" x="1896" y="-99.8" font-family="Times,serif" font-size="14.00" fill="#000000">MatSnackBarModule</text>
</g>
<!-- MatSnackBarModule&#45;&gt;AdminModule -->
<g id="edge34" class="edge">
<title>MatSnackBarModule&#45;&gt;AdminModule</title>
<path fill="none" stroke="#000000" d="M1896,-122.2667C1896,-140.5552 1896,-166 1896,-166 1896,-166 3302.3835,-166 3302.3835,-166"/>
<polygon fill="#000000" stroke="#000000" points="3302.3836,-169.5001 3312.3835,-166 3302.3835,-162.5001 3302.3836,-169.5001"/>
</g>
<!-- MatSelectModule -->
<g id="node36" class="node">
<title>MatSelectModule</title>
<polygon fill="#8dd3c7" stroke="#000000" points="1810.3076,-122 1807.3076,-126 1786.3076,-126 1783.3076,-122 1693.6924,-122 1693.6924,-86 1810.3076,-86 1810.3076,-122"/>
<text text-anchor="middle" x="1752" y="-99.8" font-family="Times,serif" font-size="14.00" fill="#000000">MatSelectModule</text>
</g>
<!-- MatSelectModule&#45;&gt;AdminModule -->
<g id="edge35" class="edge">
<title>MatSelectModule&#45;&gt;AdminModule</title>
<path fill="none" stroke="#000000" d="M1752,-122.1686C1752,-141.0898 1752,-168 1752,-168 1752,-168 3302.4945,-168 3302.4945,-168"/>
<polygon fill="#000000" stroke="#000000" points="3302.4946,-171.5001 3312.4945,-168 3302.4945,-164.5001 3302.4946,-171.5001"/>
</g>
<!-- MatGridListModule -->
<g id="node37" class="node">
<title>MatGridListModule</title>
<polygon fill="#8dd3c7" stroke="#000000" points="1675.5366,-122 1672.5366,-126 1651.5366,-126 1648.5366,-122 1546.4634,-122 1546.4634,-86 1675.5366,-86 1675.5366,-122"/>
<text text-anchor="middle" x="1611" y="-99.8" font-family="Times,serif" font-size="14.00" fill="#000000">MatGridListModule</text>
</g>
<!-- MatGridListModule&#45;&gt;AdminModule -->
<g id="edge36" class="edge">
<title>MatGridListModule&#45;&gt;AdminModule</title>
<path fill="none" stroke="#000000" d="M1611,-122.1061C1611,-141.3391 1611,-169 1611,-169 1611,-169 3302.4165,-169 3302.4165,-169"/>
<polygon fill="#000000" stroke="#000000" points="3302.4166,-172.5001 3312.4165,-169 3302.4165,-165.5001 3302.4166,-172.5001"/>
</g>
<!-- MatBadgeModule -->
<g id="node38" class="node">
<title>MatBadgeModule</title>
<polygon fill="#8dd3c7" stroke="#000000" points="1527.8655,-122 1524.8655,-126 1503.8655,-126 1500.8655,-122 1410.1345,-122 1410.1345,-86 1527.8655,-86 1527.8655,-122"/>
<text text-anchor="middle" x="1469" y="-99.8" font-family="Times,serif" font-size="14.00" fill="#000000">MatBadgeModule</text>
</g>
<!-- MatBadgeModule&#45;&gt;AdminModule -->
<g id="edge37" class="edge">
<title>MatBadgeModule&#45;&gt;AdminModule</title>
<path fill="none" stroke="#000000" d="M1469,-122.308C1469,-142.1455 1469,-171 1469,-171 1469,-171 3302.3399,-171 3302.3399,-171"/>
<polygon fill="#000000" stroke="#000000" points="3302.3399,-174.5001 3312.3399,-171 3302.3398,-167.5001 3302.3399,-174.5001"/>
</g>
<!-- MatSlideToggleModule -->
<g id="node39" class="node">
<title>MatSlideToggleModule</title>
<polygon fill="#8dd3c7" stroke="#000000" points="1392.0365,-122 1389.0365,-126 1368.0365,-126 1365.0365,-122 1241.9635,-122 1241.9635,-86 1392.0365,-86 1392.0365,-122"/>
<text text-anchor="middle" x="1317" y="-99.8" font-family="Times,serif" font-size="14.00" fill="#000000">MatSlideToggleModule</text>
</g>
<!-- MatSlideToggleModule&#45;&gt;AdminModule -->
<g id="edge38" class="edge">
<title>MatSlideToggleModule&#45;&gt;AdminModule</title>
<path fill="none" stroke="#000000" d="M1317,-122.2228C1317,-142.3652 1317,-172 1317,-172 1317,-172 3302.7143,-172 3302.7143,-172"/>
<polygon fill="#000000" stroke="#000000" points="3302.7143,-175.5001 3312.7143,-172 3302.7142,-168.5001 3302.7143,-175.5001"/>
</g>
<!-- MatTooltipModule -->
<g id="node40" class="node">
<title>MatTooltipModule</title>
<polygon fill="#8dd3c7" stroke="#000000" points="1223.8244,-122 1220.8244,-126 1199.8244,-126 1196.8244,-122 1100.1756,-122 1100.1756,-86 1223.8244,-86 1223.8244,-122"/>
<text text-anchor="middle" x="1162" y="-99.8" font-family="Times,serif" font-size="14.00" fill="#000000">MatTooltipModule</text>
</g>
<!-- MatTooltipModule&#45;&gt;AdminModule -->
<g id="edge39" class="edge">
<title>MatTooltipModule&#45;&gt;AdminModule</title>
<path fill="none" stroke="#000000" d="M1162,-122.0267C1162,-142.7672 1162,-174 1162,-174 1162,-174 3302.704,-174 3302.704,-174"/>
<polygon fill="#000000" stroke="#000000" points="3302.7041,-177.5001 3312.704,-174 3302.704,-170.5001 3302.7041,-177.5001"/>
</g>
<!-- MatListModule -->
<g id="node41" class="node">
<title>MatListModule</title>
<polygon fill="#8dd3c7" stroke="#000000" points="1081.8781,-122 1078.8781,-126 1057.8781,-126 1054.8781,-122 978.1219,-122 978.1219,-86 1081.8781,-86 1081.8781,-122"/>
<text text-anchor="middle" x="1030" y="-99.8" font-family="Times,serif" font-size="14.00" fill="#000000">MatListModule</text>
</g>
<!-- MatListModule&#45;&gt;AdminModule -->
<g id="edge40" class="edge">
<title>MatListModule&#45;&gt;AdminModule</title>
<path fill="none" stroke="#000000" d="M1030,-122.2843C1030,-143.3211 1030,-175 1030,-175 1030,-175 3302.7548,-175 3302.7548,-175"/>
<polygon fill="#000000" stroke="#000000" points="3302.7548,-178.5001 3312.7548,-175 3302.7548,-171.5001 3302.7548,-178.5001"/>
</g>
<!-- FormsModule -->
<g id="node42" class="node">
<title>FormsModule</title>
<polygon fill="#8dd3c7" stroke="#000000" points="959.8288,-122 956.8288,-126 935.8288,-126 932.8288,-122 864.1712,-122 864.1712,-86 959.8288,-86 959.8288,-122"/>
<text text-anchor="middle" x="912" y="-99.8" font-family="Times,serif" font-size="14.00" fill="#000000">FormsModule</text>
</g>
<!-- FormsModule&#45;&gt;AdminModule -->
<g id="edge41" class="edge">
<title>FormsModule&#45;&gt;AdminModule</title>
<path fill="none" stroke="#000000" d="M912,-122.0449C912,-143.6623 912,-177 912,-177 912,-177 3302.5067,-177 3302.5067,-177"/>
<polygon fill="#000000" stroke="#000000" points="3302.5067,-180.5001 3312.5067,-177 3302.5066,-173.5001 3302.5067,-180.5001"/>
</g>
<!-- ReactiveFormsModule -->
<g id="node43" class="node">
<title>ReactiveFormsModule</title>
<polygon fill="#8dd3c7" stroke="#000000" points="846.3047,-122 843.3047,-126 822.3047,-126 819.3047,-122 701.6953,-122 701.6953,-86 846.3047,-86 846.3047,-122"/>
<text text-anchor="middle" x="774" y="-99.8" font-family="Times,serif" font-size="14.00" fill="#000000">ReactiveFormsModule</text>
</g>
<!-- ReactiveFormsModule&#45;&gt;AdminModule -->
<g id="edge42" class="edge">
<title>ReactiveFormsModule&#45;&gt;AdminModule</title>
<path fill="none" stroke="#000000" d="M774,-122.2921C774,-144.2057 774,-178 774,-178 774,-178 3302.6122,-178 3302.6122,-178"/>
<polygon fill="#000000" stroke="#000000" points="3302.6122,-181.5001 3312.6122,-178 3302.6122,-174.5001 3302.6122,-181.5001"/>
</g>
<!-- ChartsModule -->
<g id="node44" class="node">
<title>ChartsModule</title>
<polygon fill="#8dd3c7" stroke="#000000" points="684.0968,-122 681.0968,-126 660.0968,-126 657.0968,-122 587.9032,-122 587.9032,-86 684.0968,-86 684.0968,-122"/>
<text text-anchor="middle" x="636" y="-99.8" font-family="Times,serif" font-size="14.00" fill="#000000">ChartsModule</text>
</g>
<!-- ChartsModule&#45;&gt;AdminModule -->
<g id="edge43" class="edge">
<title>ChartsModule&#45;&gt;AdminModule</title>
<path fill="none" stroke="#000000" d="M636,-122.0109C636,-144.4852 636,-180 636,-180 636,-180 3302.6519,-180 3302.6519,-180"/>
<polygon fill="#000000" stroke="#000000" points="3302.6519,-183.5001 3312.6519,-180 3302.6518,-176.5001 3302.6519,-183.5001"/>
</g>
<!-- FileUploadModule -->
<g id="node45" class="node">
<title>FileUploadModule</title>
<polygon fill="#8dd3c7" stroke="#000000" points="570.0409,-122 567.0409,-126 546.0409,-126 543.0409,-122 447.9591,-122 447.9591,-86 570.0409,-86 570.0409,-122"/>
<text text-anchor="middle" x="509" y="-99.8" font-family="Times,serif" font-size="14.00" fill="#000000">FileUploadModule</text>
</g>
<!-- FileUploadModule&#45;&gt;AdminModule -->
<g id="edge44" class="edge">
<title>FileUploadModule&#45;&gt;AdminModule</title>
<path fill="none" stroke="#000000" d="M509,-122.2479C509,-145.0179 509,-181 509,-181 509,-181 3302.4808,-181 3302.4808,-181"/>
<polygon fill="#000000" stroke="#000000" points="3302.4809,-184.5001 3312.4808,-181 3302.4808,-177.5001 3302.4809,-184.5001"/>
</g>
<!-- ColorPickerModule -->
<g id="node46" class="node">
<title>ColorPickerModule</title>
<polygon fill="#8dd3c7" stroke="#000000" points="429.7008,-122 426.7008,-126 405.7008,-126 402.7008,-122 302.2992,-122 302.2992,-86 429.7008,-86 429.7008,-122"/>
<text text-anchor="middle" x="366" y="-99.8" font-family="Times,serif" font-size="14.00" fill="#000000">ColorPickerModule</text>
</g>
<!-- ColorPickerModule&#45;&gt;AdminModule -->
<g id="edge45" class="edge">
<title>ColorPickerModule&#45;&gt;AdminModule</title>
<path fill="none" stroke="#000000" d="M366,-122.3228C366,-145.6602 366,-183 366,-183 366,-183 3302.4985,-183 3302.4985,-183"/>
<polygon fill="#000000" stroke="#000000" points="3302.4985,-186.5001 3312.4985,-183 3302.4984,-179.5001 3302.4985,-186.5001"/>
</g>
<!-- Daterangepicker -->
<g id="node47" class="node">
<title>Daterangepicker</title>
<polygon fill="#8dd3c7" stroke="#000000" points="284.4977,-122 281.4977,-126 260.4977,-126 257.4977,-122 175.5023,-122 175.5023,-86 284.4977,-86 284.4977,-122"/>
<text text-anchor="middle" x="230" y="-99.8" font-family="Times,serif" font-size="14.00" fill="#000000">Daterangepicker</text>
</g>
<!-- Daterangepicker&#45;&gt;AdminModule -->
<g id="edge46" class="edge">
<title>Daterangepicker&#45;&gt;AdminModule</title>
<path fill="none" stroke="#000000" d="M230,-122.1532C230,-145.7566 230,-184 230,-184 230,-184 3302.488,-184 3302.488,-184"/>
<polygon fill="#000000" stroke="#000000" points="3302.4881,-187.5001 3312.488,-184 3302.488,-180.5001 3302.4881,-187.5001"/>
</g>
<!-- InfiniteScrollModule -->
<g id="node48" class="node">
<title>InfiniteScrollModule</title>
<polygon fill="#8dd3c7" stroke="#000000" points="158.1965,-122 155.1965,-126 134.1965,-126 131.1965,-122 23.8035,-122 23.8035,-86 158.1965,-86 158.1965,-122"/>
<text text-anchor="middle" x="91" y="-99.8" font-family="Times,serif" font-size="14.00" fill="#000000">InfiniteScrollModule</text>
</g>
<!-- InfiniteScrollModule&#45;&gt;AdminModule -->
<g id="edge47" class="edge">
<title>InfiniteScrollModule&#45;&gt;AdminModule</title>
<path fill="none" stroke="#000000" d="M91,-122.1985C91,-146.3563 91,-186 91,-186 91,-186 3302.5778,-186 3302.5778,-186"/>
<polygon fill="#000000" stroke="#000000" points="3302.5778,-189.5001 3312.5778,-186 3302.5778,-182.5001 3302.5778,-189.5001"/>
</g>
</g>
</svg>
