<?xml version="1.0" encoding="UTF-8" standalone="no"?>
<!DOCTYPE svg PUBLIC "-//W3C//DTD SVG 1.1//EN"
 "http://www.w3.org/Graphics/SVG/1.1/DTD/svg11.dtd">
<!-- Generated by graphviz version 2.40.1 (20161225.0304)
 -->
<!-- Title: dependencies Pages: 1 -->
<svg width="4508pt" height="284pt"
 viewBox="0.00 0.00 4508.00 284.00" xmlns="http://www.w3.org/2000/svg" xmlns:xlink="http://www.w3.org/1999/xlink">
<g id="graph0" class="graph" transform="scale(1 1) rotate(0) translate(4 280)">
<title>dependencies</title>
<polygon fill="#ffffff" stroke="transparent" points="-4,4 -4,-280 4504,-280 4504,4 -4,4"/>
<text text-anchor="start" x="2229.0091" y="-42.4" font-family="sans-serif" font-weight="bold" font-size="14.00" fill="#000000">Legend</text>
<polygon fill="#ffffb3" stroke="transparent" points="2016,-10 2016,-30 2036,-30 2036,-10 2016,-10"/>
<text text-anchor="start" x="2039.629" y="-15.4" font-family="sans-serif" font-size="14.00" fill="#000000"> &#160;Declarations</text>
<polygon fill="#8dd3c7" stroke="transparent" points="2129,-10 2129,-30 2149,-30 2149,-10 2129,-10"/>
<text text-anchor="start" x="2152.7251" y="-15.4" font-family="sans-serif" font-size="14.00" fill="#000000"> &#160;Module</text>
<polygon fill="#80b1d3" stroke="transparent" points="2215,-10 2215,-30 2235,-30 2235,-10 2215,-10"/>
<text text-anchor="start" x="2238.7812" y="-15.4" font-family="sans-serif" font-size="14.00" fill="#000000"> &#160;Bootstrap</text>
<polygon fill="#fdb462" stroke="transparent" points="2312,-10 2312,-30 2332,-30 2332,-10 2312,-10"/>
<text text-anchor="start" x="2335.6732" y="-15.4" font-family="sans-serif" font-size="14.00" fill="#000000"> &#160;Providers</text>
<polygon fill="#fb8072" stroke="transparent" points="2408,-10 2408,-30 2428,-30 2428,-10 2408,-10"/>
<text text-anchor="start" x="2431.7258" y="-15.4" font-family="sans-serif" font-size="14.00" fill="#000000"> &#160;Exports</text>
<g id="clust1" class="cluster">
<title>cluster_AppModule</title>
<polygon fill="none" stroke="#000000" stroke-dasharray="1,5" points="8,-70 8,-268 4492,-268 4492,-70 8,-70"/>
</g>
<g id="clust2" class="cluster">
<title>cluster_AppModule_declarations</title>
<polygon fill="none" stroke="#000000" points="4362,-78 4362,-130 4484,-130 4484,-78 4362,-78"/>
</g>
<g id="clust4" class="cluster">
<title>cluster_AppModule_imports</title>
<polygon fill="none" stroke="#000000" points="843,-78 843,-130 4354,-130 4354,-78 843,-78"/>
</g>
<g id="clust6" class="cluster">
<title>cluster_AppModule_bootstrap</title>
<polygon fill="none" stroke="#000000" points="2186,-208 2186,-260 2310,-260 2310,-208 2186,-208"/>
</g>
<g id="clust7" class="cluster">
<title>cluster_AppModule_providers</title>
<polygon fill="none" stroke="#000000" points="16,-78 16,-130 835,-130 835,-78 16,-78"/>
</g>
<!-- AppComponent -->
<g id="node1" class="node">
<title>AppComponent</title>
<polygon fill="#ffffb3" stroke="#000000" points="4475.9399,-122 4370.0601,-122 4370.0601,-86 4475.9399,-86 4475.9399,-122"/>
<text text-anchor="middle" x="4423" y="-99.8" font-family="Times,serif" font-size="14.00" fill="#000000">AppComponent</text>
</g>
<!-- AppModule -->
<g id="node2" class="node">
<title>AppModule</title>
<polygon fill="#8dd3c7" stroke="#000000" points="2289.6571,-187 2286.6571,-191 2265.6571,-191 2262.6571,-187 2206.3429,-187 2206.3429,-151 2289.6571,-151 2289.6571,-187"/>
<text text-anchor="middle" x="2248" y="-164.8" font-family="Times,serif" font-size="14.00" fill="#000000">AppModule</text>
</g>
<!-- AppComponent&#45;&gt;AppModule -->
<g id="edge1" class="edge">
<title>AppComponent&#45;&gt;AppModule</title>
<path fill="none" stroke="#000000" d="M4423,-122.3802C4423,-146.2785 4423,-185 4423,-185 4423,-185 2299.9875,-185 2299.9875,-185"/>
<polygon fill="#000000" stroke="#000000" points="2299.9875,-181.5001 2289.9875,-185 2299.9874,-188.5001 2299.9875,-181.5001"/>
</g>
<!-- AppComponent  -->
<g id="node26" class="node">
<title>AppComponent </title>
<polygon fill="#80b1d3" stroke="#000000" points="2302.439,-252 2193.561,-252 2193.561,-216 2302.439,-216 2302.439,-252"/>
<text text-anchor="middle" x="2248" y="-229.8" font-family="Times,serif" font-size="14.00" fill="#000000">AppComponent </text>
</g>
<!-- AppModule&#45;&gt;AppComponent  -->
<g id="edge25" class="edge">
<title>AppModule&#45;&gt;AppComponent </title>
<path fill="none" stroke="#000000" stroke-dasharray="1,5" d="M2248,-187.1061C2248,-187.1061 2248,-205.991 2248,-205.991"/>
<polygon fill="#000000" stroke="#000000" points="2244.5001,-205.9909 2248,-215.991 2251.5001,-205.991 2244.5001,-205.9909"/>
</g>
<!-- BrowserModule -->
<g id="node3" class="node">
<title>BrowserModule</title>
<polygon fill="#8dd3c7" stroke="#000000" points="4346.4734,-122 4343.4734,-126 4322.4734,-126 4319.4734,-122 4239.5266,-122 4239.5266,-86 4346.4734,-86 4346.4734,-122"/>
<text text-anchor="middle" x="4293" y="-99.8" font-family="Times,serif" font-size="14.00" fill="#000000">BrowserModule</text>
</g>
<!-- BrowserModule&#45;&gt;AppModule -->
<g id="edge2" class="edge">
<title>BrowserModule&#45;&gt;AppModule</title>
<path fill="none" stroke="#000000" d="M4293,-122.3228C4293,-145.6602 4293,-183 4293,-183 4293,-183 2299.7763,-183 2299.7763,-183"/>
<polygon fill="#000000" stroke="#000000" points="2299.7764,-179.5001 2289.7763,-183 2299.7763,-186.5001 2299.7764,-179.5001"/>
</g>
<!-- RouterModule -->
<g id="node4" class="node">
<title>RouterModule</title>
<polygon fill="#8dd3c7" stroke="#000000" points="4221.6528,-122 4218.6528,-126 4197.6528,-126 4194.6528,-122 4124.3472,-122 4124.3472,-86 4221.6528,-86 4221.6528,-122"/>
<text text-anchor="middle" x="4173" y="-99.8" font-family="Times,serif" font-size="14.00" fill="#000000">RouterModule</text>
</g>
<!-- RouterModule&#45;&gt;AppModule -->
<g id="edge3" class="edge">
<title>RouterModule&#45;&gt;AppModule</title>
<path fill="none" stroke="#000000" d="M4173,-122.2479C4173,-145.0179 4173,-181 4173,-181 4173,-181 2299.9966,-181 2299.9966,-181"/>
<polygon fill="#000000" stroke="#000000" points="2299.9966,-177.5001 2289.9966,-181 2299.9966,-184.5001 2299.9966,-177.5001"/>
</g>
<!-- AppRoutingModule -->
<g id="node5" class="node">
<title>AppRoutingModule</title>
<polygon fill="#8dd3c7" stroke="#000000" points="4106.2744,-122 4103.2744,-126 4082.2744,-126 4079.2744,-122 3977.7256,-122 3977.7256,-86 4106.2744,-86 4106.2744,-122"/>
<text text-anchor="middle" x="4042" y="-99.8" font-family="Times,serif" font-size="14.00" fill="#000000">AppRoutingModule</text>
</g>
<!-- AppRoutingModule&#45;&gt;AppModule -->
<g id="edge4" class="edge">
<title>AppRoutingModule&#45;&gt;AppModule</title>
<path fill="none" stroke="#000000" d="M4042,-122.2921C4042,-144.2057 4042,-178 4042,-178 4042,-178 2299.7047,-178 2299.7047,-178"/>
<polygon fill="#000000" stroke="#000000" points="2299.7047,-174.5001 2289.7047,-178 2299.7046,-181.5001 2299.7047,-174.5001"/>
</g>
<!-- BrowserAnimationsModule -->
<g id="node6" class="node">
<title>BrowserAnimationsModule</title>
<polygon fill="#8dd3c7" stroke="#000000" points="3959.3019,-122 3956.3019,-126 3935.3019,-126 3932.3019,-122 3786.6981,-122 3786.6981,-86 3959.3019,-86 3959.3019,-122"/>
<text text-anchor="middle" x="3873" y="-99.8" font-family="Times,serif" font-size="14.00" fill="#000000">BrowserAnimationsModule</text>
</g>
<!-- BrowserAnimationsModule&#45;&gt;AppModule -->
<g id="edge5" class="edge">
<title>BrowserAnimationsModule&#45;&gt;AppModule</title>
<path fill="none" stroke="#000000" d="M3873,-122.1686C3873,-143.498 3873,-176 3873,-176 3873,-176 2299.8018,-176 2299.8018,-176"/>
<polygon fill="#000000" stroke="#000000" points="2299.8018,-172.5001 2289.8018,-176 2299.8017,-179.5001 2299.8018,-172.5001"/>
</g>
<!-- HttpClientModule -->
<g id="node7" class="node">
<title>HttpClientModule</title>
<polygon fill="#8dd3c7" stroke="#000000" points="3769.1611,-122 3766.1611,-126 3745.1611,-126 3742.1611,-122 3650.8389,-122 3650.8389,-86 3769.1611,-86 3769.1611,-122"/>
<text text-anchor="middle" x="3710" y="-99.8" font-family="Times,serif" font-size="14.00" fill="#000000">HttpClientModule</text>
</g>
<!-- HttpClientModule&#45;&gt;AppModule -->
<g id="edge6" class="edge">
<title>HttpClientModule&#45;&gt;AppModule</title>
<path fill="none" stroke="#000000" d="M3710,-122.0267C3710,-142.7672 3710,-174 3710,-174 3710,-174 2299.7881,-174 2299.7881,-174"/>
<polygon fill="#000000" stroke="#000000" points="2299.7882,-170.5001 2289.7881,-174 2299.7881,-177.5001 2299.7882,-170.5001"/>
</g>
<!-- MatIconModule -->
<g id="node8" class="node">
<title>MatIconModule</title>
<polygon fill="#8dd3c7" stroke="#000000" points="3632.4748,-122 3629.4748,-126 3608.4748,-126 3605.4748,-122 3525.5252,-122 3525.5252,-86 3632.4748,-86 3632.4748,-122"/>
<text text-anchor="middle" x="3579" y="-99.8" font-family="Times,serif" font-size="14.00" fill="#000000">MatIconModule</text>
</g>
<!-- MatIconModule&#45;&gt;AppModule -->
<g id="edge7" class="edge">
<title>MatIconModule&#45;&gt;AppModule</title>
<path fill="none" stroke="#000000" d="M3579,-122.2228C3579,-142.3652 3579,-172 3579,-172 3579,-172 2299.6624,-172 2299.6624,-172"/>
<polygon fill="#000000" stroke="#000000" points="2299.6624,-168.5001 2289.6624,-172 2299.6623,-175.5001 2299.6624,-168.5001"/>
</g>
<!-- MatSidenavModule -->
<g id="node9" class="node">
<title>MatSidenavModule</title>
<polygon fill="#8dd3c7" stroke="#000000" points="3507.7022,-122 3504.7022,-126 3483.7022,-126 3480.7022,-122 3380.2978,-122 3380.2978,-86 3507.7022,-86 3507.7022,-122"/>
<text text-anchor="middle" x="3444" y="-99.8" font-family="Times,serif" font-size="14.00" fill="#000000">MatSidenavModule</text>
</g>
<!-- MatSidenavModule&#45;&gt;AppModule -->
<g id="edge8" class="edge">
<title>MatSidenavModule&#45;&gt;AppModule</title>
<path fill="none" stroke="#000000" d="M3444,-122.1061C3444,-141.3391 3444,-169 3444,-169 3444,-169 2299.865,-169 2299.865,-169"/>
<polygon fill="#000000" stroke="#000000" points="2299.865,-165.5001 2289.865,-169 2299.865,-172.5001 2299.865,-165.5001"/>
</g>
<!-- MatDialogModule -->
<g id="node10" class="node">
<title>MatDialogModule</title>
<polygon fill="#8dd3c7" stroke="#000000" points="3362.2022,-122 3359.2022,-126 3338.2022,-126 3335.2022,-122 3241.7978,-122 3241.7978,-86 3362.2022,-86 3362.2022,-122"/>
<text text-anchor="middle" x="3302" y="-99.8" font-family="Times,serif" font-size="14.00" fill="#000000">MatDialogModule</text>
</g>
<!-- MatDialogModule&#45;&gt;AppModule -->
<g id="edge9" class="edge">
<title>MatDialogModule&#45;&gt;AppModule</title>
<path fill="none" stroke="#000000" d="M3302,-122.2222C3302,-140.8285 3302,-167 3302,-167 3302,-167 2299.9685,-167 2299.9685,-167"/>
<polygon fill="#000000" stroke="#000000" points="2299.9685,-163.5001 2289.9685,-167 2299.9684,-170.5001 2299.9685,-163.5001"/>
</g>
<!-- MatFormFieldModule -->
<g id="node11" class="node">
<title>MatFormFieldModule</title>
<polygon fill="#8dd3c7" stroke="#000000" points="3223.712,-122 3220.712,-126 3199.712,-126 3196.712,-122 3082.288,-122 3082.288,-86 3223.712,-86 3223.712,-122"/>
<text text-anchor="middle" x="3153" y="-99.8" font-family="Times,serif" font-size="14.00" fill="#000000">MatFormFieldModule</text>
</g>
<!-- MatFormFieldModule&#45;&gt;AppModule -->
<g id="edge10" class="edge">
<title>MatFormFieldModule&#45;&gt;AppModule</title>
<path fill="none" stroke="#000000" d="M3153,-122.302C3153,-140.2699 3153,-165 3153,-165 3153,-165 2299.835,-165 2299.835,-165"/>
<polygon fill="#000000" stroke="#000000" points="2299.835,-161.5001 2289.835,-165 2299.835,-168.5001 2299.835,-161.5001"/>
</g>
<!-- MatInputModule -->
<g id="node12" class="node">
<title>MatInputModule</title>
<polygon fill="#8dd3c7" stroke="#000000" points="3064.6513,-122 3061.6513,-126 3040.6513,-126 3037.6513,-122 2953.3487,-122 2953.3487,-86 3064.6513,-86 3064.6513,-122"/>
<text text-anchor="middle" x="3009" y="-99.8" font-family="Times,serif" font-size="14.00" fill="#000000">MatInputModule</text>
</g>
<!-- MatInputModule&#45;&gt;AppModule -->
<g id="edge11" class="edge">
<title>MatInputModule&#45;&gt;AppModule</title>
<path fill="none" stroke="#000000" d="M3009,-122.0225C3009,-139.3734 3009,-163 3009,-163 3009,-163 2299.7265,-163 2299.7265,-163"/>
<polygon fill="#000000" stroke="#000000" points="2299.7265,-159.5001 2289.7265,-163 2299.7264,-166.5001 2299.7265,-159.5001"/>
</g>
<!-- MatMenuModule -->
<g id="node13" class="node">
<title>MatMenuModule</title>
<polygon fill="#8dd3c7" stroke="#000000" points="2935.2591,-122 2932.2591,-126 2911.2591,-126 2908.2591,-122 2820.7409,-122 2820.7409,-86 2935.2591,-86 2935.2591,-122"/>
<text text-anchor="middle" x="2878" y="-99.8" font-family="Times,serif" font-size="14.00" fill="#000000">MatMenuModule</text>
</g>
<!-- MatMenuModule&#45;&gt;AppModule -->
<g id="edge12" class="edge">
<title>MatMenuModule&#45;&gt;AppModule</title>
<path fill="none" stroke="#000000" d="M2878,-122.027C2878,-138.3976 2878,-160 2878,-160 2878,-160 2299.824,-160 2299.824,-160"/>
<polygon fill="#000000" stroke="#000000" points="2299.824,-156.5001 2289.824,-160 2299.8239,-163.5001 2299.824,-156.5001"/>
</g>
<!-- MatButtonModule -->
<g id="node14" class="node">
<title>MatButtonModule</title>
<polygon fill="#8dd3c7" stroke="#000000" points="2803.2176,-122 2800.2176,-126 2779.2176,-126 2776.2176,-122 2682.7824,-122 2682.7824,-86 2803.2176,-86 2803.2176,-122"/>
<text text-anchor="middle" x="2743" y="-99.8" font-family="Times,serif" font-size="14.00" fill="#000000">MatButtonModule</text>
</g>
<!-- MatButtonModule&#45;&gt;AppModule -->
<g id="edge13" class="edge">
<title>MatButtonModule&#45;&gt;AppModule</title>
<path fill="none" stroke="#000000" d="M2743,-122.2819C2743,-137.9478 2743,-158 2743,-158 2743,-158 2299.7768,-158 2299.7768,-158"/>
<polygon fill="#000000" stroke="#000000" points="2299.7768,-154.5001 2289.7768,-158 2299.7768,-161.5001 2299.7768,-154.5001"/>
</g>
<!-- MatCheckboxModule -->
<g id="node15" class="node">
<title>MatCheckboxModule</title>
<polygon fill="#8dd3c7" stroke="#000000" points="2664.3655,-122 2661.3655,-126 2640.3655,-126 2637.3655,-122 2525.6345,-122 2525.6345,-86 2664.3655,-86 2664.3655,-122"/>
<text text-anchor="middle" x="2595" y="-99.8" font-family="Times,serif" font-size="14.00" fill="#000000">MatCheckboxModule</text>
</g>
<!-- MatCheckboxModule&#45;&gt;AppModule -->
<g id="edge14" class="edge">
<title>MatCheckboxModule&#45;&gt;AppModule</title>
<path fill="none" stroke="#000000" d="M2595,-122.1871C2595,-137.1824 2595,-156 2595,-156 2595,-156 2299.8563,-156 2299.8563,-156"/>
<polygon fill="#000000" stroke="#000000" points="2299.8563,-152.5001 2289.8563,-156 2299.8563,-159.5001 2299.8563,-152.5001"/>
</g>
<!-- MatProgressSpinnerModule -->
<g id="node16" class="node">
<title>MatProgressSpinnerModule</title>
<polygon fill="#8dd3c7" stroke="#000000" points="2507.8557,-122 2504.8557,-126 2483.8557,-126 2480.8557,-122 2334.1443,-122 2334.1443,-86 2507.8557,-86 2507.8557,-122"/>
<text text-anchor="middle" x="2421" y="-99.8" font-family="Times,serif" font-size="14.00" fill="#000000">MatProgressSpinnerModule</text>
</g>
<!-- MatProgressSpinnerModule&#45;&gt;AppModule -->
<g id="edge15" class="edge">
<title>MatProgressSpinnerModule&#45;&gt;AppModule</title>
<path fill="none" stroke="#000000" d="M2421,-122.0511C2421,-136.373 2421,-154 2421,-154 2421,-154 2299.8785,-154 2299.8785,-154"/>
<polygon fill="#000000" stroke="#000000" points="2299.8785,-150.5001 2289.8785,-154 2299.8784,-157.5001 2299.8785,-150.5001"/>
</g>
<!-- MatSnackBarModule -->
<g id="node17" class="node">
<title>MatSnackBarModule</title>
<polygon fill="#8dd3c7" stroke="#000000" points="2316.024,-122 2313.024,-126 2292.024,-126 2289.024,-122 2179.976,-122 2179.976,-86 2316.024,-86 2316.024,-122"/>
<text text-anchor="middle" x="2248" y="-99.8" font-family="Times,serif" font-size="14.00" fill="#000000">MatSnackBarModule</text>
</g>
<!-- MatSnackBarModule&#45;&gt;AppModule -->
<g id="edge16" class="edge">
<title>MatSnackBarModule&#45;&gt;AppModule</title>
<path fill="none" stroke="#000000" d="M2248,-122.1061C2248,-122.1061 2248,-140.991 2248,-140.991"/>
<polygon fill="#000000" stroke="#000000" points="2244.5001,-140.9909 2248,-150.991 2251.5001,-140.991 2244.5001,-140.9909"/>
</g>
<!-- MatSelectModule -->
<g id="node18" class="node">
<title>MatSelectModule</title>
<polygon fill="#8dd3c7" stroke="#000000" points="2162.3076,-122 2159.3076,-126 2138.3076,-126 2135.3076,-122 2045.6924,-122 2045.6924,-86 2162.3076,-86 2162.3076,-122"/>
<text text-anchor="middle" x="2104" y="-99.8" font-family="Times,serif" font-size="14.00" fill="#000000">MatSelectModule</text>
</g>
<!-- MatSelectModule&#45;&gt;AppModule -->
<g id="edge17" class="edge">
<title>MatSelectModule&#45;&gt;AppModule</title>
<path fill="none" stroke="#000000" d="M2104,-122.0511C2104,-136.373 2104,-154 2104,-154 2104,-154 2195.9621,-154 2195.9621,-154"/>
<polygon fill="#000000" stroke="#000000" points="2195.9622,-157.5001 2205.9621,-154 2195.9621,-150.5001 2195.9622,-157.5001"/>
</g>
<!-- MatGridListModule -->
<g id="node19" class="node">
<title>MatGridListModule</title>
<polygon fill="#8dd3c7" stroke="#000000" points="2027.5366,-122 2024.5366,-126 2003.5366,-126 2000.5366,-122 1898.4634,-122 1898.4634,-86 2027.5366,-86 2027.5366,-122"/>
<text text-anchor="middle" x="1963" y="-99.8" font-family="Times,serif" font-size="14.00" fill="#000000">MatGridListModule</text>
</g>
<!-- MatGridListModule&#45;&gt;AppModule -->
<g id="edge18" class="edge">
<title>MatGridListModule&#45;&gt;AppModule</title>
<path fill="none" stroke="#000000" d="M1963,-122.1871C1963,-137.1824 1963,-156 1963,-156 1963,-156 2196.2533,-156 2196.2533,-156"/>
<polygon fill="#000000" stroke="#000000" points="2196.2534,-159.5001 2206.2533,-156 2196.2533,-152.5001 2196.2534,-159.5001"/>
</g>
<!-- MatListModule -->
<g id="node20" class="node">
<title>MatListModule</title>
<polygon fill="#8dd3c7" stroke="#000000" points="1879.8781,-122 1876.8781,-126 1855.8781,-126 1852.8781,-122 1776.1219,-122 1776.1219,-86 1879.8781,-86 1879.8781,-122"/>
<text text-anchor="middle" x="1828" y="-99.8" font-family="Times,serif" font-size="14.00" fill="#000000">MatListModule</text>
</g>
<!-- MatListModule&#45;&gt;AppModule -->
<g id="edge19" class="edge">
<title>MatListModule&#45;&gt;AppModule</title>
<path fill="none" stroke="#000000" d="M1828,-122.2819C1828,-137.9478 1828,-158 1828,-158 1828,-158 2196.1933,-158 2196.1933,-158"/>
<polygon fill="#000000" stroke="#000000" points="2196.1933,-161.5001 2206.1933,-158 2196.1933,-154.5001 2196.1933,-161.5001"/>
</g>
<!-- NgProgressModule.forRoot() -->
<g id="node21" class="node">
<title>NgProgressModule.forRoot()</title>
<polygon fill="#8dd3c7" stroke="#000000" points="1757.7338,-122 1754.7338,-126 1733.7338,-126 1730.7338,-122 1576.2662,-122 1576.2662,-86 1757.7338,-86 1757.7338,-122"/>
<text text-anchor="middle" x="1667" y="-99.8" font-family="Times,serif" font-size="14.00" fill="#000000">NgProgressModule.forRoot()</text>
</g>
<!-- NgProgressModule.forRoot()&#45;&gt;AppModule -->
<g id="edge20" class="edge">
<title>NgProgressModule.forRoot()&#45;&gt;AppModule</title>
<path fill="none" stroke="#000000" d="M1667,-122.027C1667,-138.3976 1667,-160 1667,-160 1667,-160 2196.2159,-160 2196.2159,-160"/>
<polygon fill="#000000" stroke="#000000" points="2196.2159,-163.5001 2206.2159,-160 2196.2159,-156.5001 2196.2159,-163.5001"/>
</g>
<!-- NgProgressHttpClientModule -->
<g id="node22" class="node">
<title>NgProgressHttpClientModule</title>
<polygon fill="#8dd3c7" stroke="#000000" points="1557.9748,-122 1554.9748,-126 1533.9748,-126 1530.9748,-122 1374.0252,-122 1374.0252,-86 1557.9748,-86 1557.9748,-122"/>
<text text-anchor="middle" x="1466" y="-99.8" font-family="Times,serif" font-size="14.00" fill="#000000">NgProgressHttpClientModule</text>
</g>
<!-- NgProgressHttpClientModule&#45;&gt;AppModule -->
<g id="edge21" class="edge">
<title>NgProgressHttpClientModule&#45;&gt;AppModule</title>
<path fill="none" stroke="#000000" d="M1466,-122.0225C1466,-139.3734 1466,-163 1466,-163 1466,-163 2196.2327,-163 2196.2327,-163"/>
<polygon fill="#000000" stroke="#000000" points="2196.2328,-166.5001 2206.2327,-163 2196.2327,-159.5001 2196.2328,-166.5001"/>
</g>
<!-- AngularFontAwesomeModule -->
<g id="node23" class="node">
<title>AngularFontAwesomeModule</title>
<polygon fill="#8dd3c7" stroke="#000000" points="1355.573,-122 1352.573,-126 1331.573,-126 1328.573,-122 1168.427,-122 1168.427,-86 1355.573,-86 1355.573,-122"/>
<text text-anchor="middle" x="1262" y="-99.8" font-family="Times,serif" font-size="14.00" fill="#000000">AngularFontAwesomeModule</text>
</g>
<!-- AngularFontAwesomeModule&#45;&gt;AppModule -->
<g id="edge22" class="edge">
<title>AngularFontAwesomeModule&#45;&gt;AppModule</title>
<path fill="none" stroke="#000000" d="M1262,-122.302C1262,-140.2699 1262,-165 1262,-165 1262,-165 2196.2626,-165 2196.2626,-165"/>
<polygon fill="#000000" stroke="#000000" points="2196.2626,-168.5001 2206.2626,-165 2196.2626,-161.5001 2196.2626,-168.5001"/>
</g>
<!-- FileUploadModule -->
<g id="node24" class="node">
<title>FileUploadModule</title>
<polygon fill="#8dd3c7" stroke="#000000" points="1150.0409,-122 1147.0409,-126 1126.0409,-126 1123.0409,-122 1027.9591,-122 1027.9591,-86 1150.0409,-86 1150.0409,-122"/>
<text text-anchor="middle" x="1089" y="-99.8" font-family="Times,serif" font-size="14.00" fill="#000000">FileUploadModule</text>
</g>
<!-- FileUploadModule&#45;&gt;AppModule -->
<g id="edge23" class="edge">
<title>FileUploadModule&#45;&gt;AppModule</title>
<path fill="none" stroke="#000000" d="M1089,-122.2222C1089,-140.8285 1089,-167 1089,-167 1089,-167 2196.0659,-167 2196.0659,-167"/>
<polygon fill="#000000" stroke="#000000" points="2196.0659,-170.5001 2206.0659,-167 2196.0658,-163.5001 2196.0659,-170.5001"/>
</g>
<!-- JwtModule.forRoot(args) -->
<g id="node25" class="node">
<title>JwtModule.forRoot(args)</title>
<polygon fill="#8dd3c7" stroke="#000000" points="1009.1813,-122 1006.1813,-126 985.1813,-126 982.1813,-122 850.8187,-122 850.8187,-86 1009.1813,-86 1009.1813,-122"/>
<text text-anchor="middle" x="930" y="-99.8" font-family="Times,serif" font-size="14.00" fill="#000000">JwtModule.forRoot(args)</text>
</g>
<!-- JwtModule.forRoot(args)&#45;&gt;AppModule -->
<g id="edge24" class="edge">
<title>JwtModule.forRoot(args)&#45;&gt;AppModule</title>
<path fill="none" stroke="#000000" d="M930,-122.1061C930,-141.3391 930,-169 930,-169 930,-169 2196.01,-169 2196.01,-169"/>
<polygon fill="#000000" stroke="#000000" points="2196.0101,-172.5001 2206.01,-169 2196.01,-165.5001 2196.0101,-172.5001"/>
</g>
<!-- AdminGuard -->
<g id="node27" class="node">
<title>AdminGuard</title>
<ellipse fill="#fdb462" stroke="#000000" cx="765" cy="-104" rx="61.9808" ry="18"/>
<text text-anchor="middle" x="765" y="-99.8" font-family="Times,serif" font-size="14.00" fill="#000000">AdminGuard</text>
</g>
<!-- AdminGuard&#45;&gt;AppModule -->
<g id="edge26" class="edge">
<title>AdminGuard&#45;&gt;AppModule</title>
<path fill="none" stroke="#000000" d="M765,-122.2228C765,-142.3652 765,-172 765,-172 765,-172 2196.0055,-172 2196.0055,-172"/>
<polygon fill="#000000" stroke="#000000" points="2196.0056,-175.5001 2206.0055,-172 2196.0055,-168.5001 2196.0056,-175.5001"/>
</g>
<!-- Title -->
<g id="node28" class="node">
<title>Title</title>
<ellipse fill="#fdb462" stroke="#000000" cx="656" cy="-104" rx="29.049" ry="18"/>
<text text-anchor="middle" x="656" y="-99.8" font-family="Times,serif" font-size="14.00" fill="#000000">Title</text>
</g>
<!-- Title&#45;&gt;AppModule -->
<g id="edge27" class="edge">
<title>Title&#45;&gt;AppModule</title>
<path fill="none" stroke="#000000" d="M656,-122.0267C656,-142.7672 656,-174 656,-174 656,-174 2196.2362,-174 2196.2362,-174"/>
<polygon fill="#000000" stroke="#000000" points="2196.2362,-177.5001 2206.2362,-174 2196.2361,-170.5001 2196.2362,-177.5001"/>
</g>
<!-- Meta -->
<g id="node29" class="node">
<title>Meta</title>
<ellipse fill="#fdb462" stroke="#000000" cx="578" cy="-104" rx="30.7558" ry="18"/>
<text text-anchor="middle" x="578" y="-99.8" font-family="Times,serif" font-size="14.00" fill="#000000">Meta</text>
</g>
<!-- Meta&#45;&gt;AppModule -->
<g id="edge28" class="edge">
<title>Meta&#45;&gt;AppModule</title>
<path fill="none" stroke="#000000" d="M578,-122.1686C578,-143.498 578,-176 578,-176 578,-176 2196.3022,-176 2196.3022,-176"/>
<polygon fill="#000000" stroke="#000000" points="2196.3023,-179.5001 2206.3022,-176 2196.3022,-172.5001 2196.3023,-179.5001"/>
</g>
<!-- ApiService -->
<g id="node30" class="node">
<title>ApiService</title>
<ellipse fill="#fdb462" stroke="#000000" cx="475" cy="-104" rx="54.4508" ry="18"/>
<text text-anchor="middle" x="475" y="-99.8" font-family="Times,serif" font-size="14.00" fill="#000000">ApiService</text>
</g>
<!-- ApiService&#45;&gt;AppModule -->
<g id="edge29" class="edge">
<title>ApiService&#45;&gt;AppModule</title>
<path fill="none" stroke="#000000" d="M475,-122.2921C475,-144.2057 475,-178 475,-178 475,-178 2195.9215,-178 2195.9215,-178"/>
<polygon fill="#000000" stroke="#000000" points="2195.9216,-181.5001 2205.9215,-178 2195.9215,-174.5001 2195.9216,-181.5001"/>
</g>
<!-- UserService -->
<g id="node31" class="node">
<title>UserService</title>
<ellipse fill="#fdb462" stroke="#000000" cx="344" cy="-104" rx="58.4415" ry="18"/>
<text text-anchor="middle" x="344" y="-99.8" font-family="Times,serif" font-size="14.00" fill="#000000">UserService</text>
</g>
<!-- UserService&#45;&gt;AppModule -->
<g id="edge30" class="edge">
<title>UserService&#45;&gt;AppModule</title>
<path fill="none" stroke="#000000" d="M344,-122.2479C344,-145.0179 344,-181 344,-181 344,-181 2196.0132,-181 2196.0132,-181"/>
<polygon fill="#000000" stroke="#000000" points="2196.0133,-184.5001 2206.0132,-181 2196.0132,-177.5001 2196.0133,-184.5001"/>
</g>
<!-- AuthService -->
<g id="node32" class="node">
<title>AuthService</title>
<ellipse fill="#fdb462" stroke="#000000" cx="208" cy="-104" rx="59.1083" ry="18"/>
<text text-anchor="middle" x="208" y="-99.8" font-family="Times,serif" font-size="14.00" fill="#000000">AuthService</text>
</g>
<!-- AuthService&#45;&gt;AppModule -->
<g id="edge31" class="edge">
<title>AuthService&#45;&gt;AppModule</title>
<path fill="none" stroke="#000000" d="M208,-122.3228C208,-145.6602 208,-183 208,-183 208,-183 2196.3258,-183 2196.3258,-183"/>
<polygon fill="#000000" stroke="#000000" points="2196.3258,-186.5001 2206.3258,-183 2196.3258,-179.5001 2196.3258,-186.5001"/>
</g>
<!-- UserGuard -->
<g id="node33" class="node">
<title>UserGuard</title>
<ellipse fill="#fdb462" stroke="#000000" cx="77" cy="-104" rx="53.2897" ry="18"/>
<text text-anchor="middle" x="77" y="-99.8" font-family="Times,serif" font-size="14.00" fill="#000000">UserGuard</text>
</g>
<!-- UserGuard&#45;&gt;AppModule -->
<g id="edge32" class="edge">
<title>UserGuard&#45;&gt;AppModule</title>
<path fill="none" stroke="#000000" d="M77,-122.3802C77,-146.2785 77,-185 77,-185 77,-185 2196.0897,-185 2196.0897,-185"/>
<polygon fill="#000000" stroke="#000000" points="2196.0898,-188.5001 2206.0897,-185 2196.0897,-181.5001 2196.0898,-188.5001"/>
</g>
</g>
</svg>
